<svg width="24" height="28" viewBox="0 0 24 28" fill="none" xmlns="http://www.w3.org/2000/svg">
<g clip-path="url(#clip0_6_333)" filter="url(#filter0_d_6_333)">
<path d="M4 8H8V4H4V8ZM10 20H14V16H10V20ZM4 20H8V16H4V20ZM4 14H8V10H4V14ZM10 14H14V10H10V14ZM16 4V8H20V4H16ZM10 8H14V4H10V8ZM16 14H20V10H16V14ZM16 20H20V16H16V20Z" fill="#F8F9FE"/>
</g>
<defs>
<filter id="filter0_d_6_333" x="-4" y="0" width="32" height="32" filterUnits="userSpaceOnUse" color-interpolation-filters="sRGB">
<feFlood flood-opacity="0" result="BackgroundImageFix"/>
<feColorMatrix in="SourceAlpha" type="matrix" values="0 0 0 0 0 0 0 0 0 0 0 0 0 0 0 0 0 0 127 0" result="hardAlpha"/>
<feOffset dy="4"/>
<feGaussianBlur stdDeviation="2"/>
<feComposite in2="hardAlpha" operator="out"/>
<feColorMatrix type="matrix" values="0 0 0 0 0 0 0 0 0 0 0 0 0 0 0 0 0 0 0.25 0"/>
<feBlend mode="normal" in2="BackgroundImageFix" result="effect1_dropShadow_6_333"/>
<feBlend mode="normal" in="SourceGraphic" in2="effect1_dropShadow_6_333" result="shape"/>
</filter>
<clipPath id="clip0_6_333">
<rect width="24" height="24" fill="white"/>
</clipPath>
</defs>
</svg>
