<svg width="60" height="60" viewBox="0 0 60 60" fill="none" xmlns="http://www.w3.org/2000/svg">
<path d="M40.7986 3V6.59078L40.5786 11.5608C40.5486 12.2108 40.3286 12.8408 39.9486 13.3708L35.2486 19.8708C34.9986 20.2208 34.8086 20.6208 34.4786 21.2008L34.3586 21.7008C34.1386 22.6208 34.0986 23.5808 34.3686 24.4908C34.4086 24.6408 34.4686 24.7908 34.5286 24.9308L34.6286 25.1608C35.2086 26.5108 36.4086 27.4908 37.8486 27.7908L38.4086 27.9108C38.7786 27.9908 39.1486 27.9608 39.5086 27.8408L44.3086 26.1908C45.0986 25.9208 45.9586 25.9508 46.7286 26.2908L50.6786 28.0108C50.9186 28.1108 51.1686 28.1908 51.4286 28.2408L53.1686 28.5508C53.7886 28.6608 54.4286 28.5908 55.0086 28.3508L55.1386 28.3008C56.3586 27.8008 57.3186 26.8208 57.7886 25.5908L57.8186 25.5008C58.2086 24.4808 58.2286 23.3508 57.8686 22.3208L57.3586 20.8708C57.2786 20.6508 57.1786 20.4408 57.0686 20.2408L53.0286 13.5408C52.6886 12.9708 52.5186 12.3208 52.5486 11.6608L52.7686 6.70078L53.1686 3" stroke="#6691FF" stroke-miterlimit="10"/>
<path d="M50.9112 57.52L51.0612 54.5888L51.2812 49.6188C51.3112 48.9688 51.5312 48.3388 51.9112 47.8088L56.6112 41.3088C56.8612 40.9588 57.0512 40.5588 57.3812 39.9788L57.5012 39.4788C57.7212 38.5588 57.7612 37.5988 57.4912 36.6888C57.4512 36.5388 57.3912 36.3888 57.3312 36.2488L57.2312 36.0188C56.6512 34.6688 55.4512 33.6888 54.0112 33.3888L53.4512 33.2688C53.0812 33.1888 52.7112 33.2188 52.3512 33.3388L47.5512 34.9888C46.7612 35.2588 45.9012 35.2288 45.1312 34.8888L41.1812 33.1688C40.9412 33.0688 40.6912 32.9888 40.4312 32.9388L38.6912 32.6288C38.0712 32.5188 37.4312 32.5888 36.8512 32.8288L36.7212 32.8788C35.5012 33.3788 34.5412 34.3588 34.0712 35.5888L34.0412 35.6788C33.6512 36.6988 33.6312 37.8288 33.9912 38.8588L34.5012 40.3088C34.5812 40.5288 34.6812 40.7388 34.7912 40.9388L38.8312 47.6388C39.1712 48.2088 39.3412 48.8588 39.3112 49.5188L39.0912 54.4788L39.3112 57" stroke="#6691FF" stroke-miterlimit="10"/>
<path d="M26.4069 20.8795L20.5469 15.0195" stroke="#6691FF" stroke-linecap="round" stroke-linejoin="round"/>
<path d="M26.4069 33.0195L20.5469 38.8695" stroke="#6691FF" stroke-linecap="round" stroke-linejoin="round"/>
<path d="M20 26.9492H26.41" stroke="#6691FF" stroke-linecap="round" stroke-linejoin="round"/>
<path opacity="0.3" d="M49.2581 42.9362C56.5627 34.3669 55.5375 21.4986 46.9682 14.1941C38.3989 6.88951 25.5307 7.91474 18.2261 16.484C10.9215 25.0532 11.9468 37.9215 20.516 45.2261C29.0853 52.5307 41.9535 51.5054 49.2581 42.9362Z" fill="#6691FF"/>
<path opacity="0.5" d="M43.7597 38.7876C48.3142 33.4446 47.6749 25.421 42.3319 20.8665C36.9888 16.312 28.9652 16.9512 24.4107 22.2943C19.8562 27.6373 20.4955 35.6609 25.8385 40.2154C31.1816 44.7699 39.2052 44.1307 43.7597 38.7876Z" fill="#6691FF"/>
<path opacity="0.5" d="M39.156 34.8616C41.5417 32.0628 41.2069 27.86 38.4081 25.4743C35.6094 23.0886 31.4066 23.4235 29.0209 26.2222C26.6352 29.021 26.97 33.2238 29.7688 35.6095C32.5675 37.9952 36.7703 37.6603 39.156 34.8616Z" fill="#6691FF"/>
</svg>
