<svg width="100" height="100" viewBox="0 0 100 100" fill="none" xmlns="http://www.w3.org/2000/svg">
<g filter="url(#filter0_d_377_7640)">
<path d="M50 83.3C68.6396 83.3 83.75 68.3911 83.75 50C83.75 31.6089 68.6396 16.7 50 16.7C31.3604 16.7 16.25 31.6089 16.25 50C16.25 68.3911 31.3604 83.3 50 83.3Z" fill="white"/>
</g>
<path d="M35.7187 51.11C38.204 51.11 40.2187 48.6252 40.2187 45.56C40.2187 42.4948 38.204 40.01 35.7187 40.01C33.2335 40.01 31.2188 42.4948 31.2188 45.56C31.2188 48.6252 33.2335 51.11 35.7187 51.11Z" fill="#6691FF"/>
<path d="M64.1289 51.11C66.6142 51.11 68.6289 48.6252 68.6289 45.56C68.6289 42.4948 66.6142 40.01 64.1289 40.01C61.6436 40.01 59.6289 42.4948 59.6289 45.56C59.6289 48.6252 61.6436 51.11 64.1289 51.11Z" fill="#6691FF"/>
<path fill-rule="evenodd" clip-rule="evenodd" d="M39.6637 57.5512C43.1032 57.1828 46.5547 56.993 50.0069 56.993C53.459 56.993 56.9105 57.1828 60.3501 57.5512L60.3565 57.5519L60.3565 57.552C61.2383 57.6566 62.0324 58.0772 62.5444 58.7099C63.0643 59.3525 63.2826 60.206 62.9971 61.1002L62.9969 61.1008C62.1671 63.6898 60.3661 66.5094 58.0751 68.6857C55.7906 70.8559 52.9437 72.4553 50.0069 72.4553C47.0701 72.4553 44.2205 70.8561 41.9345 68.6858C39.6421 66.5095 37.8407 63.6896 37.0164 61.0998L37.0154 61.0964L37.0154 61.0964C36.7372 60.2027 36.959 59.351 37.4777 58.7099C37.9889 58.0782 38.7796 57.6569 39.6567 57.552L39.6637 57.5512L39.6637 57.5512ZM39.7887 58.6544C39.1823 58.7277 38.6693 59.0165 38.3569 59.4025C38.0519 59.7795 37.9305 60.2536 38.0903 60.769C38.8526 63.1626 40.544 65.8253 42.7145 67.8859C44.8919 69.9531 47.4761 71.3453 50.0069 71.3453C52.5375 71.3453 55.1188 69.9532 57.2948 67.8861C59.4645 65.825 61.1565 63.1612 61.9242 60.7663C62.0886 60.251 61.9693 59.7783 61.6652 59.4025C61.3537 59.0174 60.8384 58.7279 60.2253 58.6544C56.8259 58.2904 53.4161 58.103 50.0069 58.103C46.5977 58.103 43.188 58.2904 39.7887 58.6544Z" fill="#6691FF"/>
<path fill-rule="evenodd" clip-rule="evenodd" d="M67.6608 38.8052C67.4027 38.9758 67.0533 38.9077 66.8804 38.653L67.3477 38.3441C66.8804 38.653 66.8804 38.653 66.8804 38.653L66.8789 38.6509L66.869 38.6368C66.8596 38.6235 66.8448 38.6028 66.8248 38.5758C66.7847 38.5216 66.7242 38.4423 66.6455 38.3461C66.4873 38.1531 66.2592 37.8968 65.9793 37.6422C65.3995 37.115 64.6899 36.6791 63.9727 36.6791C63.2555 36.6791 62.5459 37.115 61.9661 37.6422C61.6861 37.8968 61.458 38.1531 61.2999 38.3461C61.2211 38.4423 61.1606 38.5216 61.1206 38.5758C61.1006 38.6028 61.0858 38.6235 61.0764 38.6368L61.0665 38.6509L61.065 38.653C60.892 38.9075 60.5426 38.9758 60.2846 38.8052C60.0265 38.6346 59.9574 38.2898 60.1304 38.0352L60.5977 38.3441C60.1304 38.0352 60.1304 38.0352 60.1304 38.0352L60.1313 38.0338L60.1329 38.0315L60.1376 38.0246L60.1537 38.0016C60.1674 37.9824 60.1867 37.9554 60.2116 37.9217C60.2613 37.8545 60.3332 37.7604 60.4249 37.6484C60.6078 37.4252 60.8733 37.1265 61.2036 36.826C61.8445 36.2433 62.8224 35.5691 63.9727 35.5691C65.123 35.5691 66.1009 36.2433 66.7417 36.826C67.0721 37.1265 67.3376 37.4252 67.5204 37.6484C67.6122 37.7604 67.684 37.8545 67.7337 37.9217C67.7586 37.9554 67.778 37.9824 67.7916 38.0016L67.8077 38.0246L67.8125 38.0315L67.814 38.0338L67.8148 38.0349C67.8148 38.0349 67.815 38.0352 67.3477 38.3441L67.8148 38.0349C67.9877 38.2896 67.9189 38.6346 67.6608 38.8052Z" fill="#6691FF"/>
<path fill-rule="evenodd" clip-rule="evenodd" d="M39.6257 38.8051C39.3676 38.9758 39.0182 38.9076 38.8453 38.653L39.3126 38.3441C38.8453 38.653 38.8453 38.653 38.8453 38.653L38.8438 38.6508L38.8339 38.6367C38.8245 38.6234 38.8097 38.6028 38.7897 38.5757C38.7496 38.5215 38.6891 38.4422 38.6104 38.3461C38.4522 38.153 38.2241 37.8967 37.9442 37.6422C37.3644 37.1149 36.6548 36.6791 35.9376 36.6791C35.2204 36.6791 34.5108 37.1149 33.931 37.6422C33.651 37.8967 33.4229 38.153 33.2648 38.3461C33.186 38.4422 33.1255 38.5215 33.0855 38.5757C33.0655 38.6028 33.0507 38.6234 33.0413 38.6367L33.0314 38.6508L33.0299 38.653C32.8569 38.9074 32.5075 38.9757 32.2495 38.8051C31.9914 38.6345 31.9223 38.2898 32.0953 38.0351L32.5626 38.3441C32.0953 38.0351 32.0953 38.0351 32.0953 38.0351L32.0962 38.0337L32.0978 38.0314L32.1025 38.0246L32.1186 38.0016C32.1323 37.9823 32.1516 37.9553 32.1765 37.9217C32.2262 37.8544 32.2981 37.7603 32.3898 37.6483C32.5727 37.4251 32.8382 37.1264 33.1685 36.826C33.8094 36.2432 34.7873 35.5691 35.9376 35.5691C37.0879 35.5691 38.0658 36.2432 38.7066 36.826C39.037 37.1264 39.3025 37.4251 39.4853 37.6483C39.5771 37.7603 39.6489 37.8544 39.6986 37.9216C39.7235 37.9553 39.7429 37.9823 39.7565 38.0016L39.7726 38.0246L39.7774 38.0314L39.7789 38.0337L39.7797 38.0349C39.7797 38.0349 39.7799 38.0351 39.3126 38.3441L39.7797 38.0349C39.9526 38.2895 39.8838 38.6345 39.6257 38.8051Z" fill="#6691FF"/>
<defs>
<filter id="filter0_d_377_7640" x="6.25" y="10.7" width="87.5" height="86.6" filterUnits="userSpaceOnUse" color-interpolation-filters="sRGB">
<feFlood flood-opacity="0" result="BackgroundImageFix"/>
<feColorMatrix in="SourceAlpha" type="matrix" values="0 0 0 0 0 0 0 0 0 0 0 0 0 0 0 0 0 0 127 0" result="hardAlpha"/>
<feOffset dy="4"/>
<feGaussianBlur stdDeviation="5"/>
<feComposite in2="hardAlpha" operator="out"/>
<feColorMatrix type="matrix" values="0 0 0 0 0.682353 0 0 0 0 0.772549 0 0 0 0 1 0 0 0 0.7 0"/>
<feBlend mode="normal" in2="BackgroundImageFix" result="effect1_dropShadow_377_7640"/>
<feBlend mode="normal" in="SourceGraphic" in2="effect1_dropShadow_377_7640" result="shape"/>
</filter>
</defs>
</svg>
