<svg width="18" height="22" viewBox="0 0 18 22" fill="none" xmlns="http://www.w3.org/2000/svg">
<path fill-rule="evenodd" clip-rule="evenodd" d="M0 2C0 0.89543 0.895431 0 2 0H16C17.1046 0 18 0.895431 18 2V20C18 21.1046 17.1046 22 16 22H2C0.89543 22 0 21.1046 0 20V2ZM14.625 7.33309V8.38071H3.375V7.33309H14.625ZM3.375 5.23813V6.28575H14.625V5.23813H3.375ZM3.375 3.14269H9V4.19031H3.375V3.14269ZM3.875 10.4763C3.59886 10.4763 3.375 10.7001 3.375 10.9763V18.3572C3.375 18.6334 3.59886 18.8572 3.875 18.8572H14.125C14.4011 18.8572 14.625 18.6334 14.625 18.3572V10.9763C14.625 10.7001 14.4011 10.4763 14.125 10.4763H3.875Z" fill="white" fill-opacity="0.8"/>
<path fill-rule="evenodd" clip-rule="evenodd" d="M13.2758 11.8181C13.5133 12.0354 13.5183 12.3926 13.2872 12.6158L8.22469 17.5047C8.10489 17.6204 7.9381 17.6823 7.76656 17.6747C7.59501 17.6671 7.43515 17.5907 7.32744 17.465L4.67566 14.3687C4.46783 14.126 4.50859 13.7709 4.76669 13.5755C5.02479 13.3801 5.4025 13.4185 5.61032 13.6611L7.83733 16.2614L12.4274 11.8288C12.6585 11.6056 13.0384 11.6008 13.2758 11.8181Z" fill="white" fill-opacity="0.8"/>
</svg>
