<svg width="78" height="77" viewBox="0 0 78 77" fill="none" xmlns="http://www.w3.org/2000/svg">
<g filter="url(#filter0_d_75_713)">
<path d="M39.0008 62.8499C54.9776 62.8499 67.9294 50.1572 67.9294 34.4999C67.9294 18.8426 54.9776 6.1499 39.0008 6.1499C23.024 6.1499 10.0723 18.8426 10.0723 34.4999C10.0723 50.1572 23.024 62.8499 39.0008 62.8499Z" fill="white"/>
</g>
<path d="M26.7614 35.4449C28.8917 35.4449 30.6186 33.3294 30.6186 30.7199C30.6186 28.1103 28.8917 25.9949 26.7614 25.9949C24.6312 25.9949 22.9043 28.1103 22.9043 30.7199C22.9043 33.3294 24.6312 35.4449 26.7614 35.4449Z" fill="#6691FF"/>
<path d="M51.111 35.4449C53.2413 35.4449 54.9682 33.3294 54.9682 30.7199C54.9682 28.1103 53.2413 25.9949 51.111 25.9949C48.9808 25.9949 47.2539 28.1103 47.2539 30.7199C47.2539 33.3294 48.9808 35.4449 51.111 35.4449Z" fill="#6691FF"/>
<path fill-rule="evenodd" clip-rule="evenodd" d="M30.1411 40.9286C33.0893 40.615 36.0477 40.4534 39.0067 40.4534C41.9657 40.4534 44.9242 40.615 47.8723 40.9286L47.8779 40.9292L47.8779 40.9293C48.6336 41.0184 49.3144 41.3764 49.7532 41.9151C50.1988 42.4621 50.3859 43.1888 50.1412 43.9501L50.1411 43.9506C49.4298 46.1547 47.886 48.5551 45.9224 50.4079C43.9642 52.2556 41.524 53.6172 39.0067 53.6172C36.4895 53.6172 34.047 52.2557 32.0876 50.408C30.1227 48.5553 28.5786 46.1545 27.8721 43.9497L27.8712 43.9468L27.8712 43.9468C27.6327 43.1859 27.8229 42.4609 28.2675 41.9151C28.7056 41.3773 29.3833 41.0186 30.1351 40.9293L30.1411 40.9286L30.1411 40.9286ZM30.2483 41.8678C29.7285 41.9302 29.2888 42.1761 29.0211 42.5047C28.7596 42.8256 28.6555 43.2293 28.7926 43.6681C29.4459 45.7059 30.8957 47.9728 32.7561 49.7271C34.6225 51.487 36.8375 52.6722 39.0067 52.6722C41.1758 52.6722 43.3884 51.4871 45.2536 49.7272C47.1132 47.9725 48.5636 45.7047 49.2216 43.6658C49.3625 43.2271 49.2602 42.8246 48.9996 42.5047C48.7325 42.1769 48.2909 41.9304 47.7653 41.8678C44.8516 41.5579 41.9289 41.3984 39.0067 41.3984C36.0846 41.3984 33.162 41.5579 30.2483 41.8678Z" fill="#6691FF"/>
<path fill-rule="evenodd" clip-rule="evenodd" d="M54.1378 24.9691C53.9166 25.1144 53.6171 25.0564 53.4689 24.8396L53.8694 24.5766C53.4689 24.8396 53.4689 24.8396 53.4689 24.8396L53.4676 24.8377L53.4591 24.8257C53.4511 24.8144 53.4384 24.7968 53.4212 24.7738C53.3869 24.7277 53.3351 24.6601 53.2676 24.5783C53.132 24.4139 52.9365 24.1957 52.6965 23.979C52.1996 23.5301 51.5913 23.1591 50.9766 23.1591C50.3618 23.1591 49.7536 23.5301 49.2566 23.979C49.0167 24.1957 48.8212 24.4139 48.6856 24.5783C48.6181 24.6601 48.5662 24.7277 48.5319 24.7738C48.5148 24.7968 48.5021 24.8144 48.494 24.8257L48.4855 24.8377L48.4843 24.8396C48.336 25.0562 48.0365 25.1143 47.8154 24.9691C47.5941 24.8239 47.535 24.5304 47.6832 24.3136L48.0837 24.5766C47.6832 24.3136 47.6832 24.3136 47.6832 24.3136L47.684 24.3123L47.6853 24.3104L47.6894 24.3046L47.7032 24.285C47.7149 24.2686 47.7315 24.2456 47.7528 24.2169C47.7954 24.1597 47.857 24.0796 47.9357 23.9842C48.0924 23.7942 48.3199 23.5399 48.6031 23.2841C49.1524 22.788 49.9906 22.2141 50.9766 22.2141C51.9626 22.2141 52.8007 22.788 53.35 23.2841C53.6332 23.5399 53.8608 23.7942 54.0175 23.9842C54.0961 24.0796 54.1577 24.1597 54.2003 24.2169C54.2217 24.2456 54.2383 24.2686 54.25 24.285L54.2637 24.3046L54.2678 24.3104L54.2691 24.3123L54.2698 24.3133C54.2698 24.3133 54.27 24.3136 53.8694 24.5766L54.2698 24.3133C54.418 24.5301 54.359 24.8239 54.1378 24.9691Z" fill="#6691FF"/>
<path fill-rule="evenodd" clip-rule="evenodd" d="M30.1066 24.9691C29.8854 25.1143 29.5859 25.0563 29.4377 24.8395L29.8382 24.5765C29.4377 24.8395 29.4377 24.8395 29.4377 24.8395L29.4364 24.8377L29.4279 24.8257C29.4199 24.8144 29.4072 24.7968 29.39 24.7737C29.3557 24.7276 29.3039 24.6601 29.2364 24.5782C29.1008 24.4139 28.9053 24.1957 28.6653 23.979C28.1684 23.5301 27.5601 23.159 26.9454 23.159C26.3306 23.159 25.7224 23.5301 25.2254 23.979C24.9855 24.1957 24.79 24.4139 24.6544 24.5782C24.5869 24.6601 24.535 24.7276 24.5007 24.7737C24.4836 24.7968 24.4709 24.8144 24.4628 24.8257L24.4543 24.8377L24.4531 24.8395C24.3048 25.0562 24.0053 25.1143 23.7842 24.9691C23.5629 24.8238 23.5038 24.5303 23.652 24.3135L24.0525 24.5765C23.652 24.3135 23.652 24.3135 23.652 24.3135L23.6528 24.3123L23.6541 24.3104L23.6582 24.3045L23.672 24.2849C23.6837 24.2685 23.7003 24.2455 23.7216 24.2169C23.7642 24.1596 23.8258 24.0795 23.9045 23.9842C24.0612 23.7942 24.2887 23.5399 24.5719 23.2841C25.1212 22.7879 25.9594 22.214 26.9454 22.214C27.9314 22.214 28.7695 22.7879 29.3188 23.2841C29.602 23.5399 29.8296 23.7942 29.9863 23.9842C30.0649 24.0795 30.1265 24.1596 30.1691 24.2169C30.1905 24.2455 30.2071 24.2685 30.2188 24.2849L30.2325 24.3045L30.2366 24.3104L30.2379 24.3123L30.2386 24.3133C30.2386 24.3133 30.2388 24.3135 29.8382 24.5765L30.2386 24.3133C30.3868 24.5301 30.3278 24.8238 30.1066 24.9691Z" fill="#6691FF"/>
<defs>
<filter id="filter0_d_75_713" x="0.0722656" y="0.149902" width="77.8574" height="76.7" filterUnits="userSpaceOnUse" color-interpolation-filters="sRGB">
<feFlood flood-opacity="0" result="BackgroundImageFix"/>
<feColorMatrix in="SourceAlpha" type="matrix" values="0 0 0 0 0 0 0 0 0 0 0 0 0 0 0 0 0 0 127 0" result="hardAlpha"/>
<feOffset dy="4"/>
<feGaussianBlur stdDeviation="5"/>
<feComposite in2="hardAlpha" operator="out"/>
<feColorMatrix type="matrix" values="0 0 0 0 0.682353 0 0 0 0 0.772549 0 0 0 0 1 0 0 0 0.7 0"/>
<feBlend mode="normal" in2="BackgroundImageFix" result="effect1_dropShadow_75_713"/>
<feBlend mode="normal" in="SourceGraphic" in2="effect1_dropShadow_75_713" result="shape"/>
</filter>
</defs>
</svg>
