<svg width="14" height="18" viewBox="0 0 14 18" fill="none" xmlns="http://www.w3.org/2000/svg">
<rect x="0.5" y="0.5" width="13" height="17" rx="0.5" stroke="#97AEEA"/>
<rect x="2.625" y="6" width="8.75" height="0.857143" fill="#97AEEA"/>
<rect x="2.625" y="4.28571" width="8.75" height="0.857143" fill="#97AEEA"/>
<rect x="2.625" y="2.57143" width="4.375" height="0.857143" fill="#97AEEA"/>
<path fill-rule="evenodd" clip-rule="evenodd" d="M3.125 8.57141C2.84886 8.57141 2.625 8.79527 2.625 9.07141V14.9286C2.625 15.2047 2.84886 15.4286 3.125 15.4286H10.875C11.1511 15.4286 11.375 15.2047 11.375 14.9286V9.07141C11.375 8.79527 11.1511 8.57141 10.875 8.57141H3.125ZM10.3563 10.3508C10.5501 10.154 10.5476 9.83739 10.3508 9.64367C10.154 9.44996 9.83741 9.45245 9.64369 9.64924L6.09781 13.2514L4.38776 11.151C4.21342 10.9368 3.89848 10.9046 3.68434 11.0789C3.47019 11.2533 3.43793 11.5682 3.61227 11.7823L5.67477 14.3157C5.76453 14.4259 5.89697 14.4928 6.03897 14.4994C6.18097 14.5061 6.31911 14.4521 6.41884 14.3508L10.3563 10.3508Z" fill="#97AEEA"/>
</svg>
