<svg width="32" height="32" viewBox="0 0 32 32" fill="none" xmlns="http://www.w3.org/2000/svg">
<path d="M16.0002 1.33337C17.7557 1.33337 19.2502 1.95004 20.4835 3.18337C21.7168 4.41671 22.3335 5.91115 22.3335 7.66671V10.8667H24.6668C25.2224 10.8667 25.6946 11.0612 26.0835 11.45C26.4724 11.8389 26.6668 12.3112 26.6668 12.8667V27.3334C26.6668 27.8889 26.4724 28.3612 26.0835 28.75C25.6946 29.1389 25.2224 29.3334 24.6668 29.3334H7.3335C6.77794 29.3334 6.30572 29.1389 5.91683 28.75C5.52794 28.3612 5.3335 27.8889 5.3335 27.3334V12.8667C5.3335 12.3112 5.52794 11.8389 5.91683 11.45C6.30572 11.0612 6.77794 10.8667 7.3335 10.8667H9.66683V7.66671C9.66683 5.91115 10.2835 4.41671 11.5168 3.18337C12.7502 1.95004 14.2446 1.33337 16.0002 1.33337ZM16.0002 3.33337C14.8002 3.33337 13.7779 3.7556 12.9335 4.60004C12.0891 5.44449 11.6668 6.46671 11.6668 7.66671V10.8667H20.3335V7.66671C20.3335 6.46671 19.9113 5.44449 19.0668 4.60004C18.2224 3.7556 17.2002 3.33337 16.0002 3.33337ZM16.0002 17.5334C15.2891 17.5334 14.6835 17.8056 14.1835 18.35C13.6835 18.8945 13.4335 19.5 13.4335 20.1667C13.4335 20.8556 13.6835 21.4445 14.1835 21.9334C14.6835 22.4223 15.2891 22.6667 16.0002 22.6667C16.7113 22.6667 17.3168 22.4223 17.8168 21.9334C18.3168 21.4445 18.5668 20.8556 18.5668 20.1667C18.5668 19.5 18.3168 18.8945 17.8168 18.35C17.3168 17.8056 16.7113 17.5334 16.0002 17.5334Z" fill="#BDCCD8"/>
</svg>
