<svg width="80" height="80" viewBox="0 0 80 80" fill="none" xmlns="http://www.w3.org/2000/svg">
<g clip-path="url(#clip0_75_744)">
<path opacity="0.5" d="M35.2305 67.3515C52.3513 67.3515 66.2305 53.5086 66.2305 36.4326C66.2305 19.3565 52.3513 5.51367 35.2305 5.51367C18.1096 5.51367 4.23047 19.3565 4.23047 36.4326C4.23047 53.5086 18.1096 67.3515 35.2305 67.3515Z" fill="#6691FF" fill-opacity="0.2"/>
<path opacity="0.5" d="M35.2309 61.0091C48.8397 61.0091 59.8719 50.0058 59.8719 36.4325C59.8719 22.8593 48.8397 11.856 35.2309 11.856C21.622 11.856 10.5898 22.8593 10.5898 36.4325C10.5898 50.0058 21.622 61.0091 35.2309 61.0091Z" fill="#6691FF" fill-opacity="0.4"/>
<path opacity="0.5" d="M35.2313 53.8741C44.8892 53.8741 52.7185 46.0653 52.7185 36.4327C52.7185 26.8 44.8892 18.9912 35.2313 18.9912C25.5734 18.9912 17.7441 26.8 17.7441 36.4327C17.7441 46.0653 25.5734 53.8741 35.2313 53.8741Z" fill="#6691FF" fill-opacity="0.6"/>
<path opacity="0.5" d="M35.2298 47.5317C41.3757 47.5317 46.358 42.5625 46.358 36.4326C46.358 30.3027 41.3757 25.3335 35.2298 25.3335C29.0838 25.3335 24.1016 30.3027 24.1016 36.4326C24.1016 42.5625 29.0838 47.5317 35.2298 47.5317Z" fill="#6691FF"/>
<g filter="url(#filter0_d_75_744)">
<path d="M41.6342 -1.62158V3.15978L41.3421 9.77767C41.3023 10.6432 41.0102 11.4821 40.5056 12.1878L34.265 20.843C33.9331 21.309 33.6808 21.8417 33.2426 22.614L33.0833 23.2798C32.7912 24.5048 32.738 25.7831 33.0966 26.9948C33.1497 27.1946 33.2293 27.3943 33.309 27.5807L33.4418 27.887C34.2119 29.6846 35.8052 30.9895 37.7172 31.389L38.4608 31.5488C38.9521 31.6553 39.4434 31.6154 39.9214 31.4556L46.2947 29.2585C47.3437 28.899 48.4856 28.9389 49.508 29.3917L54.7527 31.6819C55.0714 31.8151 55.4034 31.9216 55.7486 31.9882L58.0589 32.401C58.8821 32.5475 59.7319 32.4543 60.502 32.1347L60.6747 32.0681C62.2946 31.4023 63.5692 30.0974 64.1933 28.4596L64.2331 28.3397C64.751 26.9815 64.7775 25.4768 64.2995 24.1053L63.6223 22.1746C63.5161 21.8816 63.3833 21.602 63.2373 21.3357L57.873 12.4142C57.4216 11.6552 57.1959 10.7897 57.2357 9.91083L57.5278 3.30626L58.0589 -1.62158" fill="white"/>
</g>
<g filter="url(#filter1_d_75_744)">
<path d="M55.8521 81.6216V70.5734L56.1442 63.9385C56.184 63.0707 56.4761 62.2297 56.9807 61.5221L63.2213 52.8447C63.5532 52.3774 63.8055 51.8434 64.2437 51.0691L64.403 50.4016C64.6951 49.1734 64.7482 47.8918 64.3897 46.677C64.3366 46.4767 64.2569 46.2765 64.1773 46.0896L64.0445 45.7825C63.2744 43.9803 61.681 42.672 59.769 42.2715L59.0255 42.1113C58.5342 42.0045 58.0429 42.0445 57.5649 42.2047L51.1915 44.4075C50.1426 44.7679 49.0007 44.7279 47.9783 44.274L42.7335 41.9778C42.4149 41.8443 42.0829 41.7375 41.7377 41.6707L39.4274 41.2569C38.6041 41.1101 37.7543 41.2035 36.9842 41.5239L36.8116 41.5906C35.1917 42.2581 33.917 43.5664 33.293 45.2085L33.2532 45.3286C32.7353 46.6903 32.7088 48.1989 33.1868 49.5739L33.8639 51.5097C33.9702 51.8034 34.1029 52.0837 34.249 52.3507L39.6132 61.2952C40.0647 62.0561 40.2904 62.9239 40.2506 63.805L39.9585 70.4265V80.4325" fill="white"/>
</g>
</g>
<defs>
<filter id="filter0_d_75_744" x="25.1534" y="-6.23697" width="47.1795" height="49.4747" filterUnits="userSpaceOnUse" color-interpolation-filters="sRGB">
<feFlood flood-opacity="0" result="BackgroundImageFix"/>
<feColorMatrix in="SourceAlpha" type="matrix" values="0 0 0 0 0 0 0 0 0 0 0 0 0 0 0 0 0 0 127 0" result="hardAlpha"/>
<feOffset dy="3.07692"/>
<feGaussianBlur stdDeviation="3.84615"/>
<feComposite in2="hardAlpha" operator="out"/>
<feColorMatrix type="matrix" values="0 0 0 0 0.682353 0 0 0 0 0.772549 0 0 0 0 1 0 0 0 0.7 0"/>
<feBlend mode="normal" in2="BackgroundImageFix" result="effect1_dropShadow_75_744"/>
<feBlend mode="normal" in="SourceGraphic" in2="effect1_dropShadow_75_744" result="shape"/>
</filter>
<filter id="filter1_d_75_744" x="25.1534" y="36.5738" width="47.1795" height="55.817" filterUnits="userSpaceOnUse" color-interpolation-filters="sRGB">
<feFlood flood-opacity="0" result="BackgroundImageFix"/>
<feColorMatrix in="SourceAlpha" type="matrix" values="0 0 0 0 0 0 0 0 0 0 0 0 0 0 0 0 0 0 127 0" result="hardAlpha"/>
<feOffset dy="3.07692"/>
<feGaussianBlur stdDeviation="3.84615"/>
<feComposite in2="hardAlpha" operator="out"/>
<feColorMatrix type="matrix" values="0 0 0 0 0.682353 0 0 0 0 0.772549 0 0 0 0 1 0 0 0 0.7 0"/>
<feBlend mode="normal" in2="BackgroundImageFix" result="effect1_dropShadow_75_744"/>
<feBlend mode="normal" in="SourceGraphic" in2="effect1_dropShadow_75_744" result="shape"/>
</filter>
<clipPath id="clip0_75_744">
<rect width="80" height="80" fill="white"/>
</clipPath>
</defs>
</svg>
