<svg width="14" height="18" viewBox="0 0 14 18" fill="none" xmlns="http://www.w3.org/2000/svg">
<rect x="0.5" y="0.5" width="13" height="17" rx="0.5" stroke="#97AEEA"/>
<rect x="2.625" y="6" width="8.75" height="0.857143" fill="#97AEEA"/>
<rect x="2.625" y="4.28571" width="8.75" height="0.857143" fill="#97AEEA"/>
<rect x="2.625" y="2.57143" width="4.375" height="0.857143" fill="#97AEEA"/>
<path fill-rule="evenodd" clip-rule="evenodd" d="M3.125 8.57141C2.84886 8.57141 2.625 8.79527 2.625 9.07141V14.9286C2.625 15.2047 2.84886 15.4286 3.125 15.4286H10.875C11.1511 15.4286 11.375 15.2047 11.375 14.9286V9.07141C11.375 8.79527 11.1511 8.57141 10.875 8.57141H3.125ZM6.38655 11.655C6.42937 11.6544 6.47832 11.6515 6.51725 11.6491C6.50545 11.6727 6.49331 11.6938 6.48242 11.7107C6.44703 11.7657 6.3036 11.9901 6.18646 12.2103C6.13055 12.3154 6.06601 12.4463 6.02762 12.5664C6.01104 12.6182 5.98113 12.7213 5.98752 12.8387C5.99091 12.9009 6.00631 13.0061 6.0753 13.1124C6.15368 13.2331 6.27352 13.312 6.40466 13.3419C6.58325 13.3824 6.7418 13.3307 6.79447 13.3131C6.85614 13.2926 6.91947 13.264 6.9395 13.255L6.93952 13.255L6.945 13.2526C7.14766 13.1644 7.34205 13.0667 7.52246 12.976L7.55578 12.9593C7.74989 12.8618 7.92941 12.7726 8.11355 12.6952C8.26541 12.6314 8.45665 12.5624 8.64694 12.5186C8.71794 12.5022 8.78316 12.4907 8.84204 12.4835C8.84591 12.4974 8.84997 12.5114 8.85422 12.5255C8.87344 12.5892 8.90374 12.679 8.94987 12.7633C8.97297 12.8055 9.01034 12.8656 9.06718 12.923C9.12334 12.9796 9.22627 13.0609 9.37838 13.0861C9.48962 13.1045 9.58492 13.0879 9.64875 13.0703C9.71286 13.0526 9.76549 13.0281 9.79981 13.0106C9.83205 12.9941 9.86152 12.9768 9.87705 12.9677L9.87824 12.967L9.87867 12.9669C9.88912 12.9648 9.89969 12.963 9.91718 12.96L9.91726 12.96L9.92486 12.9587C9.9442 12.9553 9.97202 12.9505 10.0014 12.9442C10.1692 12.9082 10.3262 12.8914 10.5001 12.8914C10.7762 12.8914 11.0001 12.6676 11.0001 12.3914C11.0001 12.1153 10.7762 11.8914 10.5001 11.8914C10.2556 11.8914 10.0284 11.9157 9.79194 11.9664C9.78397 11.9681 9.77358 11.97 9.75452 11.9733L9.74888 11.9742C9.7447 11.9518 9.73779 11.9204 9.72705 11.8876C9.70561 11.8222 9.66261 11.7289 9.57364 11.6462C9.48349 11.5624 9.3804 11.5211 9.2905 11.5032C8.99164 11.4438 8.677 11.4854 8.42231 11.5441C8.15905 11.6048 7.91124 11.6955 7.72607 11.7733C7.65078 11.805 7.57688 11.838 7.50451 11.8716C7.52521 11.8082 7.54235 11.7417 7.55383 11.6733C7.59231 11.4438 7.57984 11.0694 7.25209 10.8137C7.04335 10.6508 6.7851 10.6439 6.67671 10.6429C6.60564 10.6423 6.53746 10.6461 6.48596 10.6492L6.45585 10.651C6.41581 10.6534 6.39248 10.6548 6.37283 10.6551C5.83288 10.6625 5.35613 10.7845 4.9055 10.9296C4.13565 11.1774 3.49256 11.6182 3.08086 12.2515C2.93035 12.483 2.99601 12.7927 3.22753 12.9432C3.45904 13.0937 3.76874 13.0281 3.91926 12.7966C4.18181 12.3927 4.61526 12.0735 5.2119 11.8815C5.62399 11.7488 5.99145 11.6604 6.38655 11.655ZM8.76427 12.1491C8.76427 12.149 8.7645 12.1502 8.76495 12.1531L8.76427 12.1491ZM6.97824 12.8776C6.97814 12.8777 6.97859 12.8758 6.97991 12.8716C6.979 12.8755 6.97835 12.8776 6.97824 12.8776Z" fill="#97AEEA"/>
</svg>
