<svg width="24" height="24" viewBox="0 0 24 24" fill="none" xmlns="http://www.w3.org/2000/svg">
<path d="M5.5 22C5.1 22 4.75 21.85 4.45 21.55C4.15 21.25 4 20.9 4 20.5V3.5C4 3.1 4.15 2.75 4.45 2.45C4.75 2.15 5.1 2 5.5 2H13.9C14.1074 2 14.3051 2.04167 14.493 2.125C14.681 2.20833 14.8417 2.31667 14.975 2.45L19.55 7.025C19.6833 7.15833 19.7917 7.31898 19.875 7.50695C19.9583 7.69492 20 7.8926 20 8.1V20.5C20 20.9 19.85 21.25 19.55 21.55C19.25 21.85 18.9 22 18.5 22H5.5ZM13.775 7.4C13.775 7.6125 13.8469 7.79063 13.9906 7.93438C14.1344 8.07813 14.3125 8.15 14.525 8.15H18.5L13.775 3.5V7.4ZM11.25 14.925V17.4C11.25 17.6125 11.3223 17.7906 11.4669 17.9344C11.6115 18.0781 11.7906 18.15 12.0044 18.15C12.2181 18.15 12.3958 18.0781 12.5375 17.9344C12.6792 17.7906 12.75 17.6125 12.75 17.4V14.925H15.25C15.4625 14.925 15.6406 14.8527 15.7844 14.7081C15.9281 14.5635 16 14.3844 16 14.1706C16 13.9569 15.9281 13.7792 15.7844 13.6375C15.6406 13.4958 15.4625 13.425 15.25 13.425H12.75V10.925C12.75 10.7125 12.6777 10.5344 12.5331 10.3906C12.3885 10.2469 12.2094 10.175 11.9956 10.175C11.7819 10.175 11.6042 10.2469 11.4625 10.3906C11.3208 10.5344 11.25 10.7125 11.25 10.925V13.425H8.75C8.5375 13.425 8.35938 13.4973 8.21563 13.6419C8.07188 13.7865 8 13.9656 8 14.1794C8 14.3931 8.07188 14.5708 8.21563 14.7125C8.35938 14.8542 8.5375 14.925 8.75 14.925H11.25Z" fill="#2D62EA"/>
</svg>
