<svg width="18" height="22" viewBox="0 0 18 22" fill="none" xmlns="http://www.w3.org/2000/svg">
<path fill-rule="evenodd" clip-rule="evenodd" d="M3.875 10.4762C3.59886 10.4762 3.375 10.7 3.375 10.9762V18.3571C3.375 18.6333 3.59886 18.8571 3.875 18.8571H14.125C14.4011 18.8571 14.625 18.6333 14.625 18.3571V10.9762C14.625 10.7 14.4011 10.4762 14.125 10.4762H3.875ZM8.21155 14.2449C8.26662 14.2442 8.32955 14.2407 8.37961 14.2377C8.36443 14.2666 8.34881 14.2923 8.33483 14.313C8.28932 14.3802 8.10491 14.6545 7.9543 14.9236C7.88241 15.0521 7.79943 15.2121 7.75007 15.3588C7.72876 15.4222 7.69031 15.5481 7.69853 15.6916C7.70288 15.7676 7.72267 15.8962 7.81138 16.0261C7.91215 16.1737 8.06624 16.2702 8.23484 16.3066C8.46446 16.3562 8.66831 16.293 8.73603 16.2715C8.81533 16.2464 8.89678 16.2115 8.92251 16.2005L8.92957 16.1975C9.19013 16.0897 9.44006 15.9703 9.67202 15.8595L9.71485 15.839C9.96442 15.7199 10.1952 15.6109 10.432 15.5163C10.6272 15.4383 10.8731 15.354 11.1178 15.3004C11.2091 15.2804 11.2929 15.2663 11.3686 15.2575C11.3736 15.2744 11.3788 15.2916 11.3843 15.3088C11.409 15.3867 11.4479 15.4965 11.5072 15.5995C11.537 15.6511 11.585 15.7246 11.6581 15.7946C11.7303 15.8638 11.8626 15.9633 12.0582 15.994C12.2012 16.0165 12.3237 15.9962 12.4058 15.9747C12.4882 15.953 12.5559 15.9231 12.6 15.9017C12.6415 15.8816 12.6794 15.8605 12.6993 15.8493L12.6993 15.8493L12.7009 15.8484L12.7014 15.8483C12.7149 15.8458 12.7285 15.8436 12.751 15.8399L12.7608 15.8383C12.7857 15.8342 12.8214 15.8283 12.8592 15.8206C13.075 15.7766 13.2768 15.7561 13.5004 15.7561C13.8554 15.7561 14.1432 15.4825 14.1432 15.145C14.1432 14.8075 13.8554 14.5339 13.5004 14.5339C13.186 14.5339 12.8939 14.5636 12.5899 14.6255C12.5797 14.6275 12.5663 14.6299 12.5418 14.6339L12.5346 14.6351C12.5292 14.6077 12.5203 14.5692 12.5065 14.5292C12.4789 14.4492 12.4236 14.3353 12.3092 14.2342C12.1933 14.1317 12.0608 14.0813 11.9452 14.0594C11.561 13.9868 11.1564 14.0376 10.829 14.1094C10.4905 14.1836 10.1719 14.2944 9.9338 14.3895C9.837 14.4282 9.74199 14.4685 9.64893 14.5096C9.67556 14.4322 9.69759 14.3508 9.71234 14.2672C9.76182 13.9867 9.74579 13.5292 9.3244 13.2166C9.05601 13.0175 8.72398 13.0091 8.58462 13.008C8.49324 13.0072 8.40558 13.0118 8.33937 13.0155L8.30066 13.0178H8.30066C8.24917 13.0207 8.21918 13.0225 8.19392 13.0228C7.4997 13.0319 6.88673 13.181 6.30735 13.3583C5.31754 13.6611 4.49071 14.2 3.96139 14.9739C3.76787 15.2569 3.85229 15.6354 4.14995 15.8194C4.44762 16.0034 4.8458 15.9231 5.03932 15.6401C5.37689 15.1465 5.93419 14.7564 6.70129 14.5217C7.23113 14.3596 7.70357 14.2515 8.21155 14.2449ZM11.2686 14.8488C11.2686 14.8486 11.2689 14.8502 11.2695 14.8537L11.2686 14.8488ZM8.97231 15.7392C8.97217 15.7393 8.97276 15.7369 8.97445 15.7318C8.97329 15.7366 8.97244 15.7391 8.97231 15.7392ZM2 0C0.895431 0 0 0.89543 0 2V20C0 21.1046 0.89543 22 2 22H16C17.1046 22 18 21.1046 18 20V2C18 0.895431 17.1046 0 16 0H2ZM3.375 3.14282H9V4.19044H3.375V3.14282ZM3.375 5.23816V6.28578H14.625V5.23816H3.375ZM3.375 7.33334V8.38096H14.625V7.33334H3.375Z" fill="white" fill-opacity="0.8"/>
</svg>
