<svg width="84" height="58" viewBox="0 0 84 58" fill="none" xmlns="http://www.w3.org/2000/svg">
<g filter="url(#filter0_d_75_676)">
<rect x="10" y="8" width="56" height="16" rx="4" fill="white"/>
<rect x="25" y="12" width="18" height="3" rx="1.5" fill="#BFD1FF"/>
<rect x="25" y="17" width="37" height="3" rx="1.5" fill="#BFD1FF"/>
<path d="M18.4873 18.0527L20.3574 19.5371L19.5615 20.2354L17.7256 18.7656L18.4873 18.0527ZM20.3721 15.25V15.6406C20.3721 16.1777 20.3021 16.6595 20.1621 17.0859C20.0221 17.5124 19.8219 17.8753 19.5615 18.1748C19.3011 18.4743 18.9902 18.7038 18.6289 18.8633C18.2676 19.0195 17.8672 19.0977 17.4277 19.0977C16.9915 19.0977 16.5928 19.0195 16.2314 18.8633C15.8734 18.7038 15.5625 18.4743 15.2988 18.1748C15.0352 17.8753 14.8301 17.5124 14.6836 17.0859C14.5404 16.6595 14.4688 16.1777 14.4688 15.6406V15.25C14.4688 14.7129 14.5404 14.2327 14.6836 13.8096C14.8268 13.3831 15.0286 13.0202 15.2891 12.7207C15.5527 12.418 15.8636 12.1885 16.2217 12.0322C16.583 11.8727 16.9818 11.793 17.418 11.793C17.8574 11.793 18.2578 11.8727 18.6191 12.0322C18.9837 12.1885 19.2962 12.418 19.5566 12.7207C19.8171 13.0202 20.0173 13.3831 20.1572 13.8096C20.3005 14.2327 20.3721 14.7129 20.3721 15.25ZM19.1416 15.6406V15.2402C19.1416 14.8431 19.1025 14.4932 19.0244 14.1904C18.9495 13.8844 18.8372 13.6289 18.6875 13.4238C18.541 13.2155 18.3604 13.0592 18.1455 12.9551C17.9339 12.8477 17.6914 12.7939 17.418 12.7939C17.151 12.7939 16.9118 12.8477 16.7002 12.9551C16.4886 13.0592 16.3079 13.2155 16.1582 13.4238C16.0085 13.6289 15.8945 13.8844 15.8164 14.1904C15.7383 14.4932 15.6992 14.8431 15.6992 15.2402V15.6406C15.6992 16.0378 15.7383 16.3893 15.8164 16.6953C15.8945 17.0013 16.0085 17.2601 16.1582 17.4717C16.3112 17.68 16.4935 17.8379 16.7051 17.9453C16.9199 18.0495 17.1608 18.1016 17.4277 18.1016C17.7012 18.1016 17.9437 18.0495 18.1553 17.9453C18.3669 17.8379 18.5459 17.68 18.6924 17.4717C18.8389 17.2601 18.9495 17.0013 19.0244 16.6953C19.1025 16.3893 19.1416 16.0378 19.1416 15.6406ZM21.5488 18.4141C21.5488 18.2318 21.6107 18.0788 21.7344 17.9551C21.8581 17.8281 22.0257 17.7646 22.2373 17.7646C22.4521 17.7646 22.6198 17.8281 22.7402 17.9551C22.8639 18.0788 22.9258 18.2318 22.9258 18.4141C22.9258 18.5964 22.8639 18.7493 22.7402 18.873C22.6198 18.9967 22.4521 19.0586 22.2373 19.0586C22.0257 19.0586 21.8581 18.9967 21.7344 18.873C21.6107 18.7493 21.5488 18.5964 21.5488 18.4141Z" fill="#6691FF"/>
</g>
<g filter="url(#filter1_d_75_676)">
<rect x="18" y="30" width="56" height="16" rx="4" fill="white"/>
<rect x="22" y="34" width="18" height="3" rx="1.5" fill="#BFD1FF"/>
<rect x="22" y="39" width="37" height="3" rx="1.5" fill="#BFD1FF"/>
<path d="M65.4912 34.8379L63.3672 41H62.083L64.7588 33.8906H65.5791L65.4912 34.8379ZM67.2686 41L65.1396 34.8379L65.0469 33.8906H65.8721L68.5576 41H67.2686ZM67.166 38.3633V39.335H63.2988V38.3633H67.166ZM69.2852 40.4141C69.2852 40.2318 69.347 40.0788 69.4707 39.9551C69.5944 39.8281 69.762 39.7646 69.9736 39.7646C70.1885 39.7646 70.3561 39.8281 70.4766 39.9551C70.6003 40.0788 70.6621 40.2318 70.6621 40.4141C70.6621 40.5964 70.6003 40.7493 70.4766 40.873C70.3561 40.9967 70.1885 41.0586 69.9736 41.0586C69.762 41.0586 69.5944 40.9967 69.4707 40.873C69.347 40.7493 69.2852 40.5964 69.2852 40.4141Z" fill="#6691FF"/>
</g>
<defs>
<filter id="filter0_d_75_676" x="0" y="0" width="76" height="36" filterUnits="userSpaceOnUse" color-interpolation-filters="sRGB">
<feFlood flood-opacity="0" result="BackgroundImageFix"/>
<feColorMatrix in="SourceAlpha" type="matrix" values="0 0 0 0 0 0 0 0 0 0 0 0 0 0 0 0 0 0 127 0" result="hardAlpha"/>
<feOffset dy="2"/>
<feGaussianBlur stdDeviation="5"/>
<feComposite in2="hardAlpha" operator="out"/>
<feColorMatrix type="matrix" values="0 0 0 0 0.682353 0 0 0 0 0.772549 0 0 0 0 1 0 0 0 0.5 0"/>
<feBlend mode="normal" in2="BackgroundImageFix" result="effect1_dropShadow_75_676"/>
<feBlend mode="normal" in="SourceGraphic" in2="effect1_dropShadow_75_676" result="shape"/>
</filter>
<filter id="filter1_d_75_676" x="8" y="22" width="76" height="36" filterUnits="userSpaceOnUse" color-interpolation-filters="sRGB">
<feFlood flood-opacity="0" result="BackgroundImageFix"/>
<feColorMatrix in="SourceAlpha" type="matrix" values="0 0 0 0 0 0 0 0 0 0 0 0 0 0 0 0 0 0 127 0" result="hardAlpha"/>
<feOffset dy="2"/>
<feGaussianBlur stdDeviation="5"/>
<feComposite in2="hardAlpha" operator="out"/>
<feColorMatrix type="matrix" values="0 0 0 0 0.682353 0 0 0 0 0.772549 0 0 0 0 1 0 0 0 0.5 0"/>
<feBlend mode="normal" in2="BackgroundImageFix" result="effect1_dropShadow_75_676"/>
<feBlend mode="normal" in="SourceGraphic" in2="effect1_dropShadow_75_676" result="shape"/>
</filter>
</defs>
</svg>
