<svg width="32" height="32" viewBox="0 0 32 32" fill="none" xmlns="http://www.w3.org/2000/svg">
<path d="M7.39984 23.5C8.79984 22.6111 10.1832 21.9388 11.5498 21.4833C12.9165 21.0277 14.3998 20.8 15.9998 20.8C17.5998 20.8 19.0887 21.0277 20.4665 21.4833C21.8443 21.9388 23.2332 22.6111 24.6332 23.5C25.6109 22.3 26.3054 21.0888 26.7165 19.8666C27.1276 18.6444 27.3332 17.3555 27.3332 16C27.3332 12.7777 26.2498 10.0833 24.0832 7.91663C21.9165 5.74996 19.2221 4.66663 15.9998 4.66663C12.7776 4.66663 10.0832 5.74996 7.9165 7.91663C5.74984 10.0833 4.6665 12.7777 4.6665 16C4.6665 17.3555 4.87761 18.6444 5.29984 19.8666C5.72206 21.0888 6.42206 22.3 7.39984 23.5ZM15.9998 17C14.7109 17 13.6276 16.5611 12.7498 15.6833C11.8721 14.8055 11.4332 13.7222 11.4332 12.4333C11.4332 11.1444 11.8721 10.0611 12.7498 9.18329C13.6276 8.30551 14.7109 7.86663 15.9998 7.86663C17.2887 7.86663 18.3721 8.30551 19.2498 9.18329C20.1276 10.0611 20.5665 11.1444 20.5665 12.4333C20.5665 13.7222 20.1276 14.8055 19.2498 15.6833C18.3721 16.5611 17.2887 17 15.9998 17ZM15.9998 29.3333C14.1332 29.3333 12.3887 28.9833 10.7665 28.2833C9.14428 27.5833 7.73317 26.6277 6.53317 25.4166C5.33317 24.2055 4.38873 22.7888 3.69984 21.1666C3.01095 19.5444 2.6665 17.8111 2.6665 15.9666C2.6665 14.1444 3.0165 12.4222 3.7165 10.8C4.4165 9.17774 5.37206 7.76663 6.58317 6.56663C7.79428 5.36663 9.21095 4.41663 10.8332 3.71663C12.4554 3.01663 14.1887 2.66663 16.0332 2.66663C17.8554 2.66663 19.5776 3.01663 21.1998 3.71663C22.8221 4.41663 24.2332 5.36663 25.4332 6.56663C26.6332 7.76663 27.5832 9.17774 28.2832 10.8C28.9832 12.4222 29.3332 14.1555 29.3332 16C29.3332 17.8222 28.9832 19.5444 28.2832 21.1666C27.5832 22.7888 26.6332 24.2055 25.4332 25.4166C24.2332 26.6277 22.8221 27.5833 21.1998 28.2833C19.5776 28.9833 17.8443 29.3333 15.9998 29.3333Z" fill="#BDCCD8"/>
</svg>
