<svg width="69" height="60" viewBox="0 0 69 60" fill="none" xmlns="http://www.w3.org/2000/svg">
<g clip-path="url(#clip0_56_1339)">
<rect width="69" height="60" fill="white"/>
<path d="M21.9113 40.8699L21.781 41.3527C21.9702 41.4037 22.1717 41.3396 22.2966 41.1886C22.4214 41.0376 22.4466 40.8276 22.361 40.6514L21.9113 40.8699ZM6.94297 41.6331L7.3234 41.9575L7.34365 41.9338L7.36078 41.9077L6.94297 41.6331ZM8.52829 45.3707L8.40834 45.8561L8.45212 45.8669L8.49712 45.8698L8.52829 45.3707ZM16.8072 46.8577L17.0506 46.4209L17.0402 46.4151L17.0296 46.4098L16.8072 46.8577ZM29.0259 49.3187L29.0644 48.8202L29.0253 48.8172L28.9862 48.8203L29.0259 49.3187ZM37.235 49.9529L37.1965 50.4514L37.2357 50.4545L37.2748 50.4513L37.235 49.9529ZM43.8734 52.4298L43.5988 52.8477L43.8734 52.4298ZM11.9651 29.2079L11.5849 29.5325L11.6106 29.5627L11.6408 29.5884L11.9651 29.2079ZM4.25416 18.6578L3.87365 18.3334L3.83372 18.3802L3.80634 18.4354L4.25416 18.6578ZM9.94802 20.9883L9.62366 21.3688L9.63827 21.3813L9.6538 21.3926L9.94802 20.9883ZM16.3297 25.6327L16.654 25.2522L16.6394 25.2397L16.6239 25.2284L16.3297 25.6327ZM20.891 27.1345L21.2715 27.4588L21.4719 27.2237L21.3512 26.9392L20.891 27.1345ZM19.1017 21.7689L19.5523 21.5521C19.5414 21.5295 19.5289 21.5078 19.5148 21.4871L19.1017 21.7689ZM15.2122 16.0671L15.6253 15.7853L15.6042 15.7545L15.5788 15.7271L15.2122 16.0671ZM12.2969 6.42312L12.5188 6.87115L12.5548 6.85335L12.5874 6.83005L12.2969 6.42312ZM15.9821 9.56449L15.5657 9.84125L15.5773 9.85874L15.5904 9.87519L15.9821 9.56449ZM23.6931 20.1146L23.2807 20.3974L23.2861 20.4051L23.6931 20.1146ZM25.9285 21.2247L26.3091 21.5491L26.446 21.3884L26.4264 21.1782L25.9285 21.2247ZM25.4297 15.8902L25.9276 15.8437L25.9233 15.7978L25.9107 15.7535L25.4297 15.8902ZM24.2364 11.6913L24.7173 11.5546L24.7067 11.5171L24.6904 11.4817L24.2364 11.6913ZM21.4119 2.26145L21.0315 1.93701L21.0314 1.93709L21.4119 2.26145ZM25.4297 3.5L25.87 3.26292L25.859 3.24253L25.8462 3.22324L25.4297 3.5ZM31 17L30.5122 17.1098L30.5153 17.1233L30.519 17.1367L31 17ZM32.5 18.5L32.5 18L32.5 18.5ZM32.144 13.0005L31.6631 13.1372L31.6631 13.1373L32.144 13.0005ZM32.3172 4.39843L32.3569 4.89685L32.3845 4.89465L32.4117 4.88941L32.3172 4.39843ZM35.5 10L35.0122 10.1098L35.0175 10.1332L35.0249 10.1559L35.5 10ZM39.258 21.4509L38.783 21.6069L38.7895 21.6269L38.7978 21.6462L39.258 21.4509ZM44.182 30.2841L43.7217 30.4794L43.7356 30.5121L43.754 30.5425L44.182 30.2841ZM47.7473 38.2325L47.2663 38.3692L47.336 38.6143L47.5753 38.702L47.7473 38.2325ZM19.5 14L19.9124 13.7172L19.9025 13.7029L19.8917 13.6893L19.5 14ZM22.0415 40.3872C19.9681 39.8278 16.7216 39.1941 13.7088 39.1138C12.2034 39.0737 10.7311 39.1709 9.48363 39.4984C8.24239 39.8243 7.15763 40.3963 6.52516 41.3584L7.36078 41.9077C7.80067 41.2386 8.61116 40.7614 9.73757 40.4657C10.8578 40.1716 12.2255 40.0747 13.6821 40.1135C16.5934 40.191 19.7586 40.8071 21.781 41.3527L22.0415 40.3872ZM6.56254 41.3086C6.12988 41.8159 5.63418 42.6962 5.7631 43.6239C5.90326 44.6325 6.7309 45.4416 8.40834 45.8561L8.64823 44.8853C7.17189 44.5205 6.81405 43.9214 6.75359 43.4863C6.68189 42.9703 6.97043 42.3714 7.3234 41.9575L6.56254 41.3086ZM8.49712 45.8698C9.49219 45.9319 11.0998 46.0803 12.6769 46.3227C14.2753 46.5684 15.7691 46.9005 16.5849 47.3055L17.0296 46.4098C16.0576 45.9273 14.4192 45.5788 12.8288 45.3343C11.2171 45.0866 9.57911 44.9354 8.55945 44.8717L8.49712 45.8698ZM16.5638 47.2944C18.4255 48.332 23.4833 50.2619 29.0656 49.8172L28.9862 48.8203C23.6451 49.2459 18.7833 47.3867 17.0506 46.4209L16.5638 47.2944ZM28.9874 49.8173L37.1965 50.4514L37.2736 49.4544L29.0644 48.8202L28.9874 49.8173ZM37.2748 50.4513C37.9828 50.3949 40.3953 50.7418 43.5988 52.8477L44.1481 52.012C40.8264 49.8285 38.1941 49.3749 37.1953 49.4545L37.2748 50.4513ZM43.5988 52.8477L55.8334 60.8904L56.3827 60.0547L44.1481 52.012L43.5988 52.8477ZM22.361 40.6514C20.7796 37.3975 17.387 33.1725 12.2895 28.8274L11.6408 29.5884C16.6779 33.8821 19.9617 38.0025 21.4616 41.0885L22.361 40.6514ZM12.3454 28.8832C11.5877 27.9958 10.6033 27.11 9.60573 26.2409C8.59759 25.3626 7.57641 24.5013 6.69873 23.6344C5.81835 22.7648 5.12519 21.9298 4.75241 21.1238C4.38915 20.3383 4.34032 19.6084 4.70199 18.8801L3.80634 18.4354C3.27993 19.4954 3.38552 20.5505 3.84479 21.5435C4.29454 22.516 5.09202 23.453 5.99601 24.3458C6.90268 25.2414 7.95957 26.133 8.94882 26.9949C9.94869 27.8661 10.8809 28.708 11.5849 29.5325L12.3454 28.8832ZM4.63468 18.9821C4.78117 18.8103 4.89414 18.7152 5.01823 18.6669C5.13221 18.6226 5.31858 18.5939 5.65349 18.6903C6.36267 18.8942 7.55014 19.6013 9.62366 21.3688L10.2724 20.6078C8.19969 18.841 6.86748 17.9989 5.92991 17.7292C5.44145 17.5887 5.02268 17.5921 4.65554 17.735C4.29852 17.874 4.05441 18.1213 3.87365 18.3334L4.63468 18.9821ZM9.6538 21.3926L16.0355 26.0369L16.6239 25.2284L10.2422 20.584L9.6538 21.3926ZM16.0053 26.0132C16.5226 26.4541 17.5606 27.0387 18.5384 27.4203C19.03 27.6121 19.5392 27.7659 19.9849 27.8179C20.2077 27.8438 20.4376 27.8473 20.6517 27.8038C20.8675 27.7601 21.0986 27.6616 21.2715 27.4588L20.5104 26.8101C20.5262 26.7917 20.5258 26.809 20.453 26.8238C20.3785 26.8389 20.2629 26.8435 20.1006 26.8246C19.7761 26.7868 19.3571 26.6663 18.902 26.4887C17.9866 26.1315 17.0581 25.5966 16.654 25.2522L16.0053 26.0132ZM21.3512 26.9392C21.3206 26.8669 21.3128 26.8289 21.3101 26.8092C21.3073 26.7886 21.3066 26.7659 21.3108 26.707C21.3206 26.5692 21.3458 26.3571 21.2897 25.9988C21.1845 25.3268 20.795 24.1346 19.5523 21.5521L18.6512 21.9857C19.8927 24.5658 20.2215 25.641 20.3018 26.1535C20.3384 26.3874 20.3232 26.4968 20.3133 26.6363C20.3076 26.7161 20.3024 26.8209 20.3194 26.9452C20.3366 27.0703 20.3732 27.1944 20.4307 27.3298L21.3512 26.9392ZM19.5148 21.4871L15.6253 15.7853L14.7992 16.3489L18.6887 22.0506L19.5148 21.4871ZM15.5788 15.7271C14.4225 14.4803 12.9076 12.5245 12.0906 10.7047C11.6802 9.7904 11.4714 8.96541 11.5262 8.30607C11.5776 7.68781 11.8582 7.19845 12.5188 6.87115L12.0749 5.9751C11.0831 6.46649 10.6084 7.27542 10.5296 8.22322C10.4542 9.12994 10.7404 10.1388 11.1783 11.1142C12.0581 13.074 13.6532 15.1215 14.8456 16.4071L15.5788 15.7271ZM12.5874 6.83005C12.6471 6.78742 12.7019 6.77158 12.7911 6.78843C12.9026 6.80947 13.0837 6.88743 13.3474 7.10041C13.8773 7.52838 14.5945 8.38006 15.5657 9.84125L16.3985 9.28772C15.4182 7.8127 14.6313 6.85198 13.9757 6.32247C13.6467 6.0567 13.3148 5.86964 12.9767 5.8058C12.6163 5.73774 12.2852 5.81712 12.0063 6.0162L12.5874 6.83005ZM23.2861 20.4051C23.5452 20.768 23.9872 21.2822 24.4756 21.6137C24.7179 21.7782 25.0168 21.929 25.341 21.9558C25.6981 21.9852 26.0447 21.8592 26.3091 21.5491L25.548 20.9004C25.4982 20.9588 25.4687 20.9629 25.4233 20.9591C25.345 20.9527 25.2149 20.9069 25.0373 20.7863C24.6859 20.5478 24.3243 20.1383 24.1001 19.8241L23.2861 20.4051ZM26.4264 21.1782L25.9276 15.8437L24.9319 15.9368L25.4307 21.2713L26.4264 21.1782ZM25.9107 15.7535L24.7173 11.5546L23.7554 11.8279L24.9488 16.0269L25.9107 15.7535ZM24.6904 11.4817C24.0715 10.1412 23.0696 8.19139 22.3653 6.36558C22.014 5.45492 21.7506 4.60837 21.6474 3.91436C21.5393 3.18769 21.6296 2.77677 21.7924 2.58581L21.0314 1.93709C20.5659 2.48323 20.5437 3.29171 20.6582 4.06148C20.7776 4.86391 21.0718 5.79085 21.4323 6.72549C22.1517 8.59026 23.1903 10.6182 23.7824 11.9008L24.6904 11.4817ZM21.7923 2.58589C22.0865 2.241 22.465 1.96595 22.9062 1.99103C23.3469 2.01609 24.0672 2.35315 25.0133 3.77676L25.8462 3.22324C24.841 1.71082 23.8797 1.04477 22.963 0.992645C22.0468 0.940551 21.392 1.51424 21.0315 1.93701L21.7923 2.58589ZM24.9895 3.73707C25.9014 5.43033 27.1534 8.19648 28.2463 10.8417C29.3439 13.4986 30.2572 15.977 30.5122 17.1098L31.4878 16.8902C31.211 15.6607 30.2631 13.1046 29.1705 10.4599C28.073 7.80343 26.8058 5.00073 25.87 3.26292L24.9895 3.73707ZM30.519 17.1367C30.6491 17.5942 30.9618 18.0407 31.2907 18.3673C31.4588 18.5341 31.6458 18.6845 31.8379 18.7963C32.0213 18.9029 32.2532 19 32.5 19L32.5 18C32.5047 18 32.4528 17.997 32.3407 17.9318C32.2372 17.8717 32.1168 17.7783 31.9953 17.6576C31.745 17.4091 31.5498 17.1057 31.481 16.8633L30.519 17.1367ZM32.5 19C32.8979 19 33.0661 18.6602 33.1157 18.5387C33.1821 18.3759 33.2166 18.1791 33.2366 17.9879C33.2776 17.5945 33.2714 17.0709 33.2322 16.5032C33.1534 15.3638 32.9348 13.9537 32.6249 12.8638L31.6631 13.1373C31.9502 14.1471 32.1595 15.4867 32.2345 16.5721C32.2722 17.1168 32.2743 17.5744 32.242 17.8841C32.2252 18.0443 32.2026 18.1296 32.1898 18.1609C32.1602 18.2335 32.2271 18 32.5 18L32.5 19ZM32.625 12.8638C32.2322 11.4819 31.7733 9.41005 31.6632 7.67916C31.6077 6.80686 31.6444 6.06898 31.794 5.55824C31.9433 5.04878 32.1484 4.91346 32.3569 4.89685L32.2775 3.90001C31.462 3.96498 31.0339 4.5958 30.8344 5.27713C30.6352 5.95718 30.6074 6.83474 30.6652 7.74265C30.7816 9.57216 31.2602 11.7198 31.6631 13.1372L32.625 12.8638ZM32.4117 4.88941C32.643 4.8449 32.8139 4.86795 32.9674 4.94873C33.1324 5.03556 33.3318 5.21799 33.5568 5.59315C34.0153 6.35734 34.4803 7.7468 35.0122 10.1098L35.9878 9.8902C35.4562 7.52862 34.9642 5.99519 34.4144 5.07868C34.1353 4.6135 33.8176 4.26613 33.4331 4.06377C33.037 3.85537 32.6258 3.82985 32.2227 3.90744L32.4117 4.88941ZM35.0249 10.1559L38.783 21.6069L39.7331 21.295L35.9751 9.84409L35.0249 10.1559ZM38.7978 21.6462C39.1678 22.5185 40.1625 24.1478 41.1588 25.8127C42.1753 27.5116 43.2094 29.2719 43.7217 30.4794L44.6423 30.0888C44.0972 28.8041 43.0218 26.9786 42.0169 25.2993C40.9917 23.586 40.0532 22.0449 39.7183 21.2557L38.7978 21.6462ZM43.754 30.5425C44.7337 32.1654 46.3293 35.072 47.2663 38.3692L48.2282 38.0958C47.2559 34.6746 45.609 31.6803 44.61 30.0257L43.754 30.5425ZM47.5753 38.702L63.9409 44.6979L64.2849 43.759L47.9193 37.763L47.5753 38.702ZM15.5904 9.87519L19.1083 14.3107L19.8917 13.6893L16.3739 9.25378L15.5904 9.87519ZM19.0876 14.2828L23.2807 20.3974L24.1054 19.8318L19.9124 13.7172L19.0876 14.2828Z" fill="#6691FF"/>
<path d="M8.13802 45.0989C8.09163 44.8427 8.46247 44.4558 8.60041 44.2778C8.82012 43.9943 9.06527 43.6211 9.37506 43.4273C9.84075 43.136 10.5294 42.8411 11.0883 42.9792C11.7828 43.1508 12.3556 43.5248 12.7543 44.1093C12.8336 44.2256 12.9923 44.7147 12.9647 44.8604C12.9518 44.9289 13.0023 45.0356 12.9914 45.1207C12.9779 45.227 12.9377 45.378 12.8911 45.4716" stroke="#6691FF" stroke-linecap="round"/>
<path opacity="0.3" d="M57.5765 41.9618C64.881 33.3926 63.8558 20.5243 55.2866 13.2197C46.7173 5.91514 33.849 6.94037 26.5445 15.5096C19.2399 24.0789 20.2651 36.9472 28.8344 44.2517C37.4036 51.5563 50.2719 50.5311 57.5765 41.9618Z" fill="#6691FF"/>
<path opacity="0.5" d="M52.0771 37.8133C56.6316 32.4702 55.9923 24.4466 50.6493 19.8921C45.3062 15.3376 37.2826 15.9769 32.7281 21.3199C28.1736 26.663 28.8129 34.6865 34.1559 39.2411C39.499 43.7956 47.5225 43.1563 52.0771 37.8133Z" fill="#6691FF"/>
<path opacity="0.5" d="M47.4754 33.8872C49.8611 31.0885 49.5262 26.8857 46.7275 24.5C43.9287 22.1143 39.7259 22.4491 37.3402 25.2478C34.9545 28.0466 35.2893 32.2494 38.0881 34.6351C40.8868 37.0208 45.0897 36.686 47.4754 33.8872Z" fill="#6691FF"/>
</g>
<defs>
<clipPath id="clip0_56_1339">
<rect width="69" height="60" fill="white"/>
</clipPath>
</defs>
</svg>
