<svg width="100" height="100" viewBox="0 0 100 100" fill="none" xmlns="http://www.w3.org/2000/svg">
<g clip-path="url(#clip0_377_7626)">
<g filter="url(#filter0_d_377_7626)">
<path d="M10.0527 73.712C13.1655 69.0317 25.8144 71.0201 31.7497 72.5993C29.5207 68.0564 24.6873 62.078 17.3478 55.8913C13.1149 50.9859 3.60515 45.9051 6.18414 40.7748C7.13378 39.6731 8.42892 39.047 14.4343 44.1091L23.6785 50.76C25.013 51.8849 29.3764 53.9652 30.2881 52.9076C29.7782 51.717 31.2957 52.6157 27.7013 45.2169L22.0708 37.0469C18.6695 33.419 13.0649 25.5753 17.8571 23.2236C18.8391 22.5296 20.3698 23.5156 23.1949 27.7229L28.2884 34.0779L34.3585 42.8394C35.0582 43.8097 36.6857 45.4859 37.5973 44.4283L36.881 36.7806L35.1565 30.7619C33.4046 27.0026 29.251 19.3607 31.0743 17.2456C32.0242 16.1441 34.0718 14.8093 36.8965 19.0163C39.5705 23.9333 44.1858 34.9786 44.9535 38.3649C45.2409 39.368 46.4239 40.5142 47.1259 40.5136C47.8506 40.513 47.4794 35.6389 46.6167 32.6293C45.467 28.6167 43.9097 20.5324 46.8786 20.2959C48.7179 19.9442 49.9494 21.5507 51.4849 28.3231L56.9177 44.7361C57.9374 47.1173 62.5143 53.8226 64.0438 57.3944C65.4758 59.7428 67.8221 63.9709 69.2016 68.7859L102.017 82.9658L102.005 98.4698C102.005 98.4698 98.6339 102.64 97.4558 101.974L81.2924 100.662L63.5688 89.146C58.8425 86.075 55.1868 85.5044 53.9498 85.6029L42.0516 84.7039C34.1345 85.3345 26.9478 82.6244 24.3441 81.1905C21.7538 79.9201 15.266 79.2467 12.3459 79.0688C7.77553 77.9554 8.91277 75.0337 10.0527 73.712Z" fill="white"/>
</g>
<path opacity="0.3" d="M83.4288 74.1278C94.0251 61.8354 92.5555 43.3908 80.1463 32.9308C67.7371 22.4709 49.0874 23.9564 38.4911 36.2489C27.8947 48.5414 29.3643 66.9859 41.7735 77.4459C54.1827 87.9059 72.8324 86.4203 83.4288 74.1278Z" fill="#6691FF"/>
<path opacity="0.5" d="M75.4628 68.1879C82.0698 60.5233 81.1535 49.0229 73.4161 42.5009C65.6788 35.979 54.0505 36.9052 47.4435 44.5698C40.8365 52.2344 41.7528 63.7348 49.4901 70.2568C57.2275 76.7787 68.8558 75.8525 75.4628 68.1879Z" fill="#6691FF"/>
<path opacity="0.5" d="M68.7986 62.5668C72.2594 58.552 71.7794 52.528 67.7265 49.1117C63.6737 45.6954 57.5826 46.1806 54.1218 50.1954C50.661 54.2102 51.141 60.2342 55.1939 63.6505C59.2468 67.0667 65.3378 66.5816 68.7986 62.5668Z" fill="#6691FF"/>
</g>
<defs>
<filter id="filter0_d_377_7626" x="-4.25391" y="10.1368" width="116.27" height="105.909" filterUnits="userSpaceOnUse" color-interpolation-filters="sRGB">
<feFlood flood-opacity="0" result="BackgroundImageFix"/>
<feColorMatrix in="SourceAlpha" type="matrix" values="0 0 0 0 0 0 0 0 0 0 0 0 0 0 0 0 0 0 127 0" result="hardAlpha"/>
<feOffset dy="4"/>
<feGaussianBlur stdDeviation="5"/>
<feComposite in2="hardAlpha" operator="out"/>
<feColorMatrix type="matrix" values="0 0 0 0 0.682353 0 0 0 0 0.772549 0 0 0 0 1 0 0 0 0.7 0"/>
<feBlend mode="normal" in2="BackgroundImageFix" result="effect1_dropShadow_377_7626"/>
<feBlend mode="normal" in="SourceGraphic" in2="effect1_dropShadow_377_7626" result="shape"/>
</filter>
<clipPath id="clip0_377_7626">
<rect width="100" height="86" fill="white" transform="translate(0 14)"/>
</clipPath>
</defs>
</svg>
