<svg version="1.1" xmlns="http://www.w3.org/2000/svg" xmlns:xlink="http://www.w3.org/1999/xlink" width="48px" height="48px" viewBox="0,0,256,256"><g fill="#bdccd8" fill-rule="nonzero" stroke="none" stroke-width="1" stroke-linecap="butt" stroke-linejoin="miter" stroke-miterlimit="10" stroke-dasharray="" stroke-dashoffset="0" font-family="none" font-weight="none" font-size="none" text-anchor="none" style="mix-blend-mode: normal"><g transform="scale(5.33333,5.33333)"><path d="M30,5c-7.16174,0 -13,5.83826 -13,13c0,0.88235 0.18274,1.70333 0.35156,2.52734l-11.91211,11.91211c-0.2813,0.28127 -0.43938,0.66275 -0.43945,1.06055v8c0.00008,0.82839 0.67161,1.49992 1.5,1.5h8c0.82839,-0.00008 1.49992,-0.67161 1.5,-1.5v-2.5h3.5c0.82839,-0.00008 1.49992,-0.67161 1.5,-1.5v-3.5h3.5c0.82839,-0.00008 1.49992,-0.67161 1.5,-1.5v-2.20508c1.27115,0.41447 2.5957,0.70508 4,0.70508c7.16174,0 13,-5.83826 13,-13c0,-7.16174 -5.83826,-13 -13,-13zM30,8c5.54026,0 10,4.45974 10,10c0,5.54026 -4.45974,10 -10,10c-1.73748,0 -3.3608,-0.43942 -4.78125,-1.21484c-0.46474,-0.25361 -1.02874,-0.24347 -1.48406,0.02668c-0.45532,0.27015 -0.73453,0.7603 -0.73469,1.28973v2.89844h-3.5c-0.82839,0.00008 -1.49992,0.67161 -1.5,1.5v3.5h-3.5c-0.82839,0.00008 -1.49992,0.67161 -1.5,1.5v2.5h-5v-5.87891l11.98828,-11.98828c0.38271,-0.38255 0.52974,-0.94155 0.38477,-1.46289c-0.23917,-0.86083 -0.37305,-1.75026 -0.37305,-2.66992c0,-5.54026 4.45974,-10 10,-10zM32,13c-1.65685,0 -3,1.34315 -3,3c0,1.65685 1.34315,3 3,3c1.65685,0 3,-1.34315 3,-3c0,-1.65685 -1.34315,-3 -3,-3z"></path></g></g></svg>