<svg width="30" height="39" viewBox="0 0 30 39" fill="none" xmlns="http://www.w3.org/2000/svg">
<path d="M7 29.9925C7.72241 28.8689 8.87586 28.0456 10.3399 27.5691C11.2643 27.2682 12.1688 27.0403 13.1706 27.0264C13.5062 27.0217 14.1047 26.9228 14.381 27.1408C14.8923 27.5442 14.5634 28.3899 14.2917 28.8167C14.1446 29.0476 13.1442 30.6351 13.4616 30.7081C13.6094 30.742 13.839 30.6285 13.9544 30.5777C14.8119 30.2002 15.6063 29.7321 16.4709 29.3647C17.1931 29.0577 18.3525 28.673 19.1991 28.8433C19.3548 28.8746 19.3274 29.0085 19.3578 29.1146C19.4106 29.2985 19.5437 30.1034 19.7712 30.1414C19.924 30.167 20.1109 30.0163 20.2275 29.9605C20.3721 29.8914 20.547 29.8782 20.707 29.8435C21.1401 29.7497 21.5518 29.7052 22 29.7052" stroke="#97AEEA" stroke-width="2" stroke-linecap="round"/>
<path fill-rule="evenodd" clip-rule="evenodd" d="M2 0C0.895431 0 0 0.89543 0 2V37C0 38.1046 0.89543 39 2 39H28C29.1046 39 30 38.1046 30 37V2C30 0.895431 29.1046 0 28 0H2ZM12.75 4.5H3.75V7.5H12.75V4.5ZM3.75 10.5H26.25V12H3.75V10.5ZM26.25 15H3.75V16.5H26.25V15ZM3.75 19.5H26.25V21H3.75V19.5ZM26.25 24H3.75V34.5H26.25V24Z" fill="#97AEEA"/>
</svg>
