<svg width="80" height="80" viewBox="0 0 80 80" fill="none" xmlns="http://www.w3.org/2000/svg">
<g clip-path="url(#clip0_75_707)">
<g filter="url(#filter0_d_75_707)">
<path d="M8.49291 58.3906C10.9775 54.5862 21.0966 56.2176 25.8456 57.509C24.0577 53.8104 20.1853 48.9412 14.3082 43.8998C10.9173 39.9042 3.30562 35.7602 5.36275 31.589C6.12109 30.6938 7.1563 30.1857 11.9651 34.3107L19.3661 39.7319C20.4347 40.6486 23.9269 42.3458 24.655 41.4863C24.2459 40.5171 25.4606 41.25 22.5776 35.2265L18.0652 28.5733C15.3408 25.618 10.8496 19.2303 14.6799 17.3222C15.4646 16.7587 16.69 17.5625 18.9541 20.9886L23.035 26.1645L27.8996 33.2994C28.4603 34.0896 29.7638 35.4551 30.4918 34.5956L29.9105 28.3728L28.5247 23.4741C27.1194 20.4137 23.7889 14.1918 25.2449 12.4729C26.0034 11.5778 27.6397 10.494 29.9035 13.9199C32.0476 17.9232 35.7511 26.9146 36.3689 29.6705C36.5999 30.4869 37.5473 31.4208 38.1087 31.421C38.6884 31.4213 38.3861 27.4554 37.6929 25.0059C36.7689 21.74 35.5145 15.161 37.8889 14.9718C39.3596 14.6877 40.3463 15.996 41.5819 21.5077L45.9451 34.8671C46.7633 36.8055 50.4314 42.2658 51.6586 45.1735C52.8065 47.0857 54.6877 50.5282 55.7964 54.4471L82.0584 66.0195L82.0655 78.6334C82.0655 78.6334 79.3741 82.0227 78.4311 81.4796L65.5018 80.3943L51.3133 71.0057C47.5298 68.5021 44.6052 68.0339 43.6159 68.1127L34.0985 67.3683C27.7669 67.8728 22.0158 65.66 19.9317 64.4906C17.8586 63.4542 12.6687 62.8993 10.3329 62.7514C6.67622 61.8406 7.58262 59.4647 8.49291 58.3906Z" fill="white"/>
</g>
<path opacity="0.3" d="M67.2028 58.7999C75.6673 48.807 74.4713 33.794 64.5315 25.2674C54.5916 16.7409 39.6719 17.9296 31.2073 27.9226C22.7427 37.9155 23.9387 52.9285 33.8786 61.455C43.8185 69.9816 58.7382 68.7928 67.2028 58.7999Z" fill="#6691FF"/>
<path opacity="0.5" d="M60.8242 53.9563C66.102 47.7256 65.3563 38.3648 59.1586 33.0483C52.961 27.7319 43.6583 28.4731 38.3805 34.7038C33.1027 40.9346 33.8484 50.2954 40.0461 55.6118C46.2438 60.9283 55.5464 60.1871 60.8242 53.9563Z" fill="#6691FF"/>
<path opacity="0.5" d="M55.4846 49.3744C58.2491 46.1106 57.8585 41.2074 54.6121 38.4226C51.3657 35.6378 46.4929 36.026 43.7283 39.2897C40.9638 42.5534 41.3544 47.4567 44.6008 50.2415C47.8472 53.0263 52.72 52.6381 55.4846 49.3744Z" fill="#6691FF"/>
</g>
<defs>
<filter id="filter0_d_75_707" x="-2.98438" y="6.77324" width="93.0508" height="85.9653" filterUnits="userSpaceOnUse" color-interpolation-filters="sRGB">
<feFlood flood-opacity="0" result="BackgroundImageFix"/>
<feColorMatrix in="SourceAlpha" type="matrix" values="0 0 0 0 0 0 0 0 0 0 0 0 0 0 0 0 0 0 127 0" result="hardAlpha"/>
<feOffset dy="3.2"/>
<feGaussianBlur stdDeviation="4"/>
<feComposite in2="hardAlpha" operator="out"/>
<feColorMatrix type="matrix" values="0 0 0 0 0.682353 0 0 0 0 0.772549 0 0 0 0 1 0 0 0 0.7 0"/>
<feBlend mode="normal" in2="BackgroundImageFix" result="effect1_dropShadow_75_707"/>
<feBlend mode="normal" in="SourceGraphic" in2="effect1_dropShadow_75_707" result="shape"/>
</filter>
<clipPath id="clip0_75_707">
<rect width="80" height="80" fill="white"/>
</clipPath>
</defs>
</svg>
