<svg width="18" height="18" viewBox="0 0 18 18" fill="none" xmlns="http://www.w3.org/2000/svg">
<path d="M8.49375 12.75H9.61875V9.6375H12.75V8.5125H9.61875V5.25H8.49375V8.5125H5.25V9.6375H8.49375V12.75ZM9.00499 16.5C7.97081 16.5 6.99894 16.3031 6.08936 15.9094C5.17979 15.5156 4.38438 14.9781 3.70312 14.2969C3.02188 13.6156 2.48438 12.8197 2.09063 11.9092C1.69688 10.9987 1.5 10.0259 1.5 8.99063C1.5 7.95539 1.69688 6.98252 2.09063 6.07202C2.48438 5.16151 3.02188 4.36875 3.70312 3.69375C4.38438 3.01875 5.18026 2.48438 6.09077 2.09063C7.00127 1.69688 7.97414 1.5 9.00938 1.5C10.0446 1.5 11.0175 1.69688 11.928 2.09063C12.8385 2.48438 13.6313 3.01875 14.3063 3.69375C14.9813 4.36875 15.5156 5.1625 15.9094 6.075C16.3031 6.9875 16.5 7.96084 16.5 8.99501C16.5 10.0292 16.3031 11.0011 15.9094 11.9106C15.5156 12.8202 14.9813 13.6145 14.3063 14.2934C13.6313 14.9724 12.8375 15.5099 11.925 15.9059C11.0125 16.302 10.0392 16.5 9.00499 16.5ZM9.00938 15.375C10.7781 15.375 12.2812 14.7531 13.5188 13.5094C14.7563 12.2656 15.375 10.7594 15.375 8.99063C15.375 7.22188 14.7574 5.71875 13.5223 4.48125C12.2871 3.24375 10.7797 2.625 9 2.625C7.2375 2.625 5.73438 3.24258 4.49063 4.47773C3.24688 5.71289 2.625 7.22031 2.625 9C2.625 10.7625 3.24688 12.2656 4.49063 13.5094C5.73438 14.7531 7.24063 15.375 9.00938 15.375Z" fill="white"/>
</svg>
