<svg width="18" height="18" viewBox="0 0 18 18" fill="none" xmlns="http://www.w3.org/2000/svg">
<path d="M10.2367 16.5H7.76172C7.62422 16.5 7.50234 16.4563 7.39609 16.3688C7.28984 16.2813 7.22422 16.1688 7.19922 16.0313L6.89922 14.1375C6.66172 14.05 6.41172 13.9313 6.14922 13.7813C5.88672 13.6313 5.65547 13.475 5.45547 13.3125L3.71172 14.1188C3.57422 14.1813 3.43672 14.1906 3.29922 14.1469C3.16172 14.1031 3.05547 14.0125 2.98047 13.875L1.74297 11.6813C1.66797 11.5563 1.64922 11.425 1.68672 11.2875C1.72422 11.15 1.79922 11.0375 1.91172 10.95L3.52422 9.76875C3.49922 9.65625 3.48359 9.52813 3.47734 9.38438C3.47109 9.24063 3.46797 9.1125 3.46797 9C3.46797 8.8875 3.47109 8.75938 3.47734 8.61563C3.48359 8.47188 3.49922 8.34375 3.52422 8.23125L1.91172 7.05C1.79922 6.9625 1.72422 6.85 1.68672 6.7125C1.64922 6.575 1.66797 6.44375 1.74297 6.31875L2.98047 4.125C3.05547 3.9875 3.16172 3.89688 3.29922 3.85313C3.43672 3.80938 3.57422 3.81875 3.71172 3.88125L5.45547 4.6875C5.65547 4.525 5.88672 4.36875 6.14922 4.21875C6.41172 4.06875 6.66172 3.95625 6.89922 3.88125L7.19922 1.96875C7.22422 1.83125 7.28984 1.71875 7.39609 1.63125C7.50234 1.54375 7.62422 1.5 7.76172 1.5H10.2367C10.3742 1.5 10.4961 1.54375 10.6023 1.63125C10.7086 1.71875 10.7742 1.83125 10.7992 1.96875L11.0992 3.8625C11.3367 3.95 11.5898 4.06563 11.8586 4.20938C12.1273 4.35313 12.3555 4.5125 12.543 4.6875L14.2867 3.88125C14.4242 3.81875 14.5617 3.80938 14.6992 3.85313C14.8367 3.89688 14.943 3.9875 15.018 4.125L16.2555 6.3C16.3305 6.425 16.3523 6.55938 16.3211 6.70313C16.2898 6.84688 16.2117 6.9625 16.0867 7.05L14.4742 8.19375C14.4992 8.31875 14.5148 8.45313 14.5211 8.59688C14.5273 8.74063 14.5305 8.875 14.5305 9C14.5305 9.125 14.5273 9.25625 14.5211 9.39375C14.5148 9.53125 14.4992 9.6625 14.4742 9.7875L16.0867 10.95C16.1992 11.0375 16.2742 11.15 16.3117 11.2875C16.3492 11.425 16.3305 11.5563 16.2555 11.6813L15.018 13.875C14.943 14.0125 14.8367 14.1031 14.6992 14.1469C14.5617 14.1906 14.4242 14.1813 14.2867 14.1188L12.543 13.3125C12.343 13.475 12.1148 13.6344 11.8586 13.7906C11.6023 13.9469 11.3492 14.0625 11.0992 14.1375L10.7992 16.0313C10.7742 16.1688 10.7086 16.2813 10.6023 16.3688C10.4961 16.4563 10.3742 16.5 10.2367 16.5ZM8.99922 11.4375C9.67422 11.4375 10.2492 11.2 10.7242 10.725C11.1992 10.25 11.4367 9.675 11.4367 9C11.4367 8.325 11.1992 7.75 10.7242 7.275C10.2492 6.8 9.67422 6.5625 8.99922 6.5625C8.32422 6.5625 7.74922 6.8 7.27422 7.275C6.79922 7.75 6.56172 8.325 6.56172 9C6.56172 9.675 6.79922 10.25 7.27422 10.725C7.74922 11.2 8.32422 11.4375 8.99922 11.4375Z" fill="#999999"/>
</svg>
