<svg width="104" height="66" viewBox="0 0 104 66" fill="none" xmlns="http://www.w3.org/2000/svg">
<g filter="url(#filter0_d_377_7561)">
<rect x="10" y="8" width="71" height="20" rx="4" fill="white"/>
</g>
<path d="M21.008 19.336H22.16L23.06 20.512C23.684 19.948 24.08 19.024 24.08 17.752C24.08 15.568 22.892 14.38 21.368 14.392C19.82 14.38 18.632 15.568 18.632 17.752C18.632 19.948 19.82 21.124 21.368 21.136C21.68 21.136 21.98 21.076 22.256 20.98L21.008 19.336ZM17.6 17.752C17.6 15.076 19.184 13.396 21.368 13.408C23.528 13.396 25.112 15.076 25.112 17.752C25.112 19.336 24.56 20.572 23.66 21.316L24.776 22.792H23.624L22.88 21.808C22.424 22.012 21.92 22.12 21.368 22.12C19.184 22.12 17.6 20.44 17.6 17.752ZM26.7157 22.072C26.2957 22.072 25.9477 21.724 25.9477 21.304C25.9477 20.896 26.2957 20.56 26.7157 20.56C27.1237 20.56 27.4597 20.896 27.4597 21.304C27.4597 21.724 27.1237 22.072 26.7157 22.072Z" fill="#6691FF"/>
<rect x="34" y="13" width="18" height="4" rx="2" fill="#BFD1FF"/>
<rect x="34" y="19" width="37" height="4" rx="2" fill="#BFD1FF"/>
<g filter="url(#filter1_d_377_7561)">
<rect x="23" y="34" width="71" height="20" rx="4" fill="white"/>
</g>
<path d="M76.32 48H75.216L78.312 39.504H79.416L82.536 48H81.432L80.592 45.624H77.16L76.32 48ZM77.496 44.688H80.256L78.912 40.872H78.84L77.496 44.688ZM84.2938 48.072C83.8738 48.072 83.5258 47.724 83.5258 47.304C83.5258 46.896 83.8738 46.56 84.2938 46.56C84.7018 46.56 85.0378 46.896 85.0378 47.304C85.0378 47.724 84.7018 48.072 84.2938 48.072Z" fill="#6691FF"/>
<rect x="30" y="39" width="18" height="4" rx="2" fill="#BFD1FF"/>
<rect x="30" y="45" width="37" height="4" rx="2" fill="#BFD1FF"/>
<defs>
<filter id="filter0_d_377_7561" x="0" y="0" width="91" height="40" filterUnits="userSpaceOnUse" color-interpolation-filters="sRGB">
<feFlood flood-opacity="0" result="BackgroundImageFix"/>
<feColorMatrix in="SourceAlpha" type="matrix" values="0 0 0 0 0 0 0 0 0 0 0 0 0 0 0 0 0 0 127 0" result="hardAlpha"/>
<feOffset dy="2"/>
<feGaussianBlur stdDeviation="5"/>
<feComposite in2="hardAlpha" operator="out"/>
<feColorMatrix type="matrix" values="0 0 0 0 0.682353 0 0 0 0 0.772549 0 0 0 0 1 0 0 0 0.5 0"/>
<feBlend mode="normal" in2="BackgroundImageFix" result="effect1_dropShadow_377_7561"/>
<feBlend mode="normal" in="SourceGraphic" in2="effect1_dropShadow_377_7561" result="shape"/>
</filter>
<filter id="filter1_d_377_7561" x="13" y="26" width="91" height="40" filterUnits="userSpaceOnUse" color-interpolation-filters="sRGB">
<feFlood flood-opacity="0" result="BackgroundImageFix"/>
<feColorMatrix in="SourceAlpha" type="matrix" values="0 0 0 0 0 0 0 0 0 0 0 0 0 0 0 0 0 0 127 0" result="hardAlpha"/>
<feOffset dy="2"/>
<feGaussianBlur stdDeviation="5"/>
<feComposite in2="hardAlpha" operator="out"/>
<feColorMatrix type="matrix" values="0 0 0 0 0.682353 0 0 0 0 0.772549 0 0 0 0 1 0 0 0 0.5 0"/>
<feBlend mode="normal" in2="BackgroundImageFix" result="effect1_dropShadow_377_7561"/>
<feBlend mode="normal" in="SourceGraphic" in2="effect1_dropShadow_377_7561" result="shape"/>
</filter>
</defs>
</svg>
