<svg width="56" height="60" viewBox="0 0 56 60" fill="none" xmlns="http://www.w3.org/2000/svg">
<path d="M54.5 30C54.5 44.6355 42.6355 56.5 28 56.5C13.3645 56.5 1.5 44.6355 1.5 30C1.5 15.3645 13.3645 3.5 28 3.5C42.6355 3.5 54.5 15.3645 54.5 30Z" fill="#EBF1FF" stroke="#6691FF" stroke-miterlimit="10"/>
<path d="M16.5766 30.8999C18.5648 30.8999 20.1766 28.8852 20.1766 26.3999C20.1766 23.9146 18.5648 21.8999 16.5766 21.8999C14.5883 21.8999 12.9766 23.9146 12.9766 26.3999C12.9766 28.8852 14.5883 30.8999 16.5766 30.8999Z" fill="#6691FF"/>
<path d="M39.3031 30.8999C41.2914 30.8999 42.9031 28.8852 42.9031 26.3999C42.9031 23.9146 41.2914 21.8999 39.3031 21.8999C37.3149 21.8999 35.7031 23.9146 35.7031 26.3999C35.7031 28.8852 37.3149 30.8999 39.3031 30.8999Z" fill="#6691FF"/>
<path fill-rule="evenodd" clip-rule="evenodd" d="M19.7309 36.1226C22.4825 35.8239 25.2438 35.6699 28.0055 35.6699C30.7672 35.6699 33.5284 35.8239 36.28 36.1226L36.2852 36.1231L36.2852 36.1231C36.9906 36.208 37.626 36.549 38.0355 37.062C38.4515 37.583 38.6261 38.2751 38.3977 39.0001L38.3975 39.0006C37.7337 41.0998 36.2929 43.3859 34.4601 45.1505C32.6325 46.9101 30.355 48.2069 28.0055 48.2069C25.6561 48.2069 23.3764 46.9102 21.5476 45.1506C19.7137 43.386 18.2726 41.0996 17.6132 38.9997L17.6123 38.997L17.6123 38.997C17.3898 38.2724 17.5672 37.5818 17.9822 37.062C18.3911 36.5498 19.0236 36.2082 19.7253 36.1232L19.7309 36.1225L19.7309 36.1226ZM19.831 37.017C19.3458 37.0764 18.9354 37.3106 18.6855 37.6236C18.4415 37.9292 18.3444 38.3137 18.4723 38.7315C19.0821 40.6723 20.4352 42.8313 22.1716 44.502C23.9136 46.1781 25.9809 47.3069 28.0055 47.3069C30.03 47.3069 32.095 46.1782 33.8359 44.5021C35.5716 42.831 36.9252 40.6712 37.5394 38.7294C37.6709 38.3116 37.5754 37.9282 37.3322 37.6236C37.0829 37.3113 36.6707 37.0766 36.1802 37.017C33.4607 36.7219 30.7329 36.5699 28.0055 36.5699C25.2782 36.5699 22.5504 36.7219 19.831 37.017Z" fill="#6691FF"/>
<path fill-rule="evenodd" clip-rule="evenodd" d="M42.1286 20.9231C41.9221 21.0614 41.6426 21.0062 41.5043 20.7997L41.8781 20.5493C41.5043 20.7997 41.5043 20.7997 41.5043 20.7997L41.5031 20.798L41.4952 20.7865C41.4877 20.7758 41.4758 20.759 41.4598 20.7371C41.4278 20.6932 41.3794 20.6288 41.3164 20.5509C41.1899 20.3944 41.0074 20.1866 40.7834 19.9802C40.3196 19.5527 39.7519 19.1993 39.1781 19.1993C38.6044 19.1993 38.0367 19.5527 37.5729 19.9802C37.3489 20.1866 37.1664 20.3944 37.0399 20.5509C36.9769 20.6288 36.9285 20.6932 36.8965 20.7371C36.8805 20.759 36.8686 20.7758 36.8611 20.7865L36.8532 20.798L36.852 20.7997C36.7136 21.0061 36.4341 21.0614 36.2277 20.9231C36.0212 20.7848 35.966 20.5053 36.1043 20.2988L36.4781 20.5493C36.1043 20.2988 36.1043 20.2988 36.1043 20.2988L36.1051 20.2976L36.1063 20.2958L36.1101 20.2902L36.123 20.2716C36.1339 20.256 36.1494 20.2341 36.1693 20.2068C36.2091 20.1522 36.2665 20.076 36.34 19.9851C36.4862 19.8042 36.6986 19.562 36.9629 19.3184C37.4756 18.8459 38.2579 18.2993 39.1781 18.2993C40.0984 18.2993 40.8807 18.8459 41.3934 19.3184C41.6577 19.562 41.87 19.8042 42.0163 19.9851C42.0897 20.076 42.1472 20.1522 42.187 20.2068C42.2069 20.2341 42.2224 20.256 42.2333 20.2716L42.2462 20.2902L42.25 20.2958L42.2512 20.2976L42.2518 20.2986C42.2518 20.2986 42.252 20.2988 41.8781 20.5493L42.2518 20.2986C42.3902 20.505 42.3351 20.7848 42.1286 20.9231Z" fill="#6691FF"/>
<path fill-rule="evenodd" clip-rule="evenodd" d="M19.699 20.9231C19.4925 21.0614 19.213 21.0062 19.0747 20.7997L19.4485 20.5492C19.0747 20.7997 19.0747 20.7997 19.0747 20.7997L19.0735 20.798L19.0655 20.7865C19.058 20.7757 19.0462 20.759 19.0302 20.737C18.9981 20.6931 18.9497 20.6288 18.8868 20.5509C18.7602 20.3943 18.5777 20.1865 18.3538 19.9801C17.8899 19.5526 17.3222 19.1992 16.7485 19.1992C16.1747 19.1992 15.607 19.5526 15.1432 19.9801C14.9193 20.1865 14.7368 20.3943 14.6102 20.5509C14.5473 20.6288 14.4988 20.6931 14.4668 20.737C14.4508 20.759 14.439 20.7757 14.4315 20.7865L14.4235 20.798L14.4223 20.7997C14.284 21.006 14.0044 21.0614 13.798 20.9231C13.5915 20.7847 13.5363 20.5052 13.6747 20.2987L14.0485 20.5492C13.6747 20.2987 13.6747 20.2987 13.6747 20.2987L13.6754 20.2976L13.6767 20.2957L13.6805 20.2902L13.6933 20.2715C13.7042 20.2559 13.7198 20.234 13.7397 20.2067C13.7794 20.1522 13.8369 20.0759 13.9103 19.9851C14.0566 19.8041 14.269 19.5619 14.5333 19.3183C15.0459 18.8458 15.8282 18.2992 16.7485 18.2992C17.6687 18.2992 18.451 18.8458 18.9637 19.3183C19.228 19.5619 19.4404 19.8041 19.5867 19.9851C19.6601 20.0759 19.7176 20.1522 19.7573 20.2067C19.7772 20.234 19.7927 20.2559 19.8036 20.2715L19.8165 20.2902L19.8203 20.2957L19.8216 20.2976L19.8222 20.2985C19.8222 20.2985 19.8223 20.2987 19.4485 20.5492L19.8222 20.2985C19.9605 20.505 19.9054 20.7847 19.699 20.9231Z" fill="#6691FF"/>
</svg>
